<svg xmlns="http://www.w3.org/2000/svg" xmlns:xlink="http://www.w3.org/1999/xlink" width="174.665" height="140.773" viewBox="0 0 130.999 105.58"><symbol id="a"><path d="M.397.344C.406.367.423.41.489.411v.031a.94.94 0 0 0-.162 0V.411C.364.41.375.387.375.368.375.359.373.355.369.344L.267.089.155.368C.149.381.149.383.149.385c0 .026.039.026.057.026v.031L.097.439C.07.439.03.44 0 .442V.411C.063.411.067.405.08.374L.224.019C.23.005.232 0 .245 0c.013 0 .017.009.021.019l.131.325z"/></symbol><symbol id="b"><path d="M.291.087C.295.047.322.005.369.005.39.005.451.019.451.1v.056H.426V.1C.426.042.401.036.39.036c-.033 0-.037.045-.037.05v.2c0 .042 0 .081-.036.118A.191.191 0 0 1 .18.459C.098.459.029.412.029.346c0-.03.02-.047.046-.047.028 0 .046.02.046.046C.121.357.116.39.07.391c.027.035.076.046.108.046.049 0 .106-.039.106-.128V.272C.233.269.163.266.1.236.025.202 0 .15 0 .106 0 .025.097 0 .16 0c.066 0 .112.04.131.087M.284.251v-.1C.284.056.212.022.167.022c-.049 0-.09.035-.09.085 0 .055.042.138.207.144z"/></symbol><symbol id="c"><path d="M.139.332v.11L0 .431V.4C.07.4.078.393.078.344V.076C.078.031.067.031 0 .031V0l.114.003c.04 0 .087 0 .127-.003v.031H.22C.146.031.144.042.144.078v.154c0 .099.042.188.118.188L.273.419A.043.043 0 0 1 .25.38C.25.352.271.337.293.337c.018 0 .043.012.043.044S.305.442.262.442C.189.442.153.375.139.332z"/></symbol><symbol id="d"><path d="M.265 0v.058H0V0h.265z"/></symbol><symbol id="e"><path d="M.144.57v.066L0 .625V.594c.071 0 .078-.006.078-.05V.076C.078.031.067.031 0 .031V0l.112.003L.225 0v.031c-.067 0-.078 0-.078.045V.253C.152.237.194.183.27.183c.119 0 .223.098.223.227 0 .127-.097.226-.209.226A.18.18 0 0 1 .144.57M.147.308v.223a.15.15 0 0 0 .129.08C.349.611.41.523.41.41.41.289.34.205.266.205c-.04 0-.078.02-.105.061C.147.287.147.288.147.308z"/></symbol><symbol id="f"><path d="M.443.225c0 .128-.1.234-.221.234C.097.459 0 .35 0 .225 0 .096.104 0 .221 0c.121 0 .222.098.222.225m-.221-.2a.13.13 0 0 0-.114.067C.083.136.083.197.083.233c0 .039 0 .093.024.137a.134.134 0 0 0 .114.067.131.131 0 0 0 .113-.065C.36.329.36.271.36.233c0-.036 0-.09-.022-.134A.129.129 0 0 0 .222.025z"/></symbol><symbol id="g"><path d="M.144.442.004.431V.4C.069.4.078.394.078.345V.076C.078.031.067.031 0 .031V0l.11.003C.145.003.18.001.214 0v.031c-.066 0-.07.005-.07.044v.367m.004.174a.052.052 0 0 1-.053.053.054.054 0 0 1-.053-.053c0-.027.022-.053.053-.053.028 0 .053.021.053.053z"/></symbol><symbol id="h"><path d="M.078.344V.076C.078.031.067.031 0 .031V0l.113.003L.225 0v.031c-.067 0-.078 0-.078.045V.26c0 .104.071.16.135.16C.345.42.356.366.356.309V.076C.356.031.345.031.278.031V0l.113.003L.503 0v.031c-.052 0-.077 0-.078.03v.191c0 .086 0 .117-.031.153C.38.422.347.442.289.442.216.442.169.399.141.337v.105L0 .431V.4C.07.4.078.393.078.344z"/></symbol><symbol id="i"><path d="M.154.411h.143v.031H.154v.184H.129C.128.544.098.437 0 .433V.411h.085V.135C.085.012.178 0 .214 0c.071 0 .099.071.099.135v.057H.288V.137C.288.063.258.025.221.025.154.025.154.116.154.133v.278z"/></symbol><symbol id="j"><path d="M.175.205C.197.201.279.185.279.113.279.062.244.022.166.022c-.084 0-.12.057-.139.142C.024.177.023.181.013.181 0 .181 0 .174 0 .156V.024C0 .007 0 0 .011 0c.005 0 .006.001.025.02.002.002.002.004.02.023A.15.15 0 0 1 .166 0c.115 0 .161.067.161.139 0 .053-.03.083-.042.095C.252.266.213.274.171.282.115.293.048.306.048.364.048.399.074.44.16.44.27.44.275.35.277.319.278.31.287.31.289.31c.013 0 .013.005.013.024v.101c0 .017 0 .024-.011.024-.005 0-.007 0-.02-.012A.129.129 0 0 0 .254.431C.216.459.175.459.16.459.038.459 0 .392 0 .336 0 .301.016.273.043.251.075.225.103.219.175.205z"/></symbol><use xlink:href="#a" transform="matrix(9.9626 0 0 -9.9626 37.343 21.093)"/><use xlink:href="#b" transform="matrix(9.9626 0 0 -9.9626 42.275 21.093)"/><use xlink:href="#c" transform="matrix(9.9626 0 0 -9.9626 47.117 20.983)"/><use xlink:href="#d" transform="matrix(9.9626 0 0 -9.9626 50.853 19.12)"/><use xlink:href="#e" transform="matrix(9.9626 0 0 -9.9626 54.34 22.916)"/><use xlink:href="#f" transform="matrix(9.9626 0 0 -9.9626 60.158 21.093)"/><use xlink:href="#g" transform="matrix(9.9626 0 0 -9.9626 65.189 20.983)"/><use xlink:href="#h" transform="matrix(9.9626 0 0 -9.9626 67.948 20.983)"/><use xlink:href="#i" transform="matrix(9.9626 0 0 -9.9626 73.08 21.093)"/><use xlink:href="#j" transform="matrix(9.9626 0 0 -9.9626 77.094 21.093)"/><use xlink:href="#d" transform="matrix(9.9626 0 0 -9.9626 80.8 19.12)"/><use xlink:href="#i" transform="matrix(9.9626 0 0 -9.9626 84.197 21.093)"/><use xlink:href="#f" transform="matrix(9.9626 0 0 -9.9626 88.163 21.093)"/><path stroke-width=".399" stroke-miterlimit="10" fill="none" stroke="#000" d="M65.008 10.809V.199h14.173v12.357"/><path stroke-width=".399" stroke-linecap="round" stroke-linejoin="round" fill="none" stroke="#000" d="M81.572 10.683c-1.434.379-2.112 1.222-2.39 2.072-.28-.85-.957-1.693-2.392-2.072"/><symbol id="k"><path d="M.083.229c0 .163.082.205.135.205C.227.434.29.433.325.397.284.394.278.364.278.351c0-.026.018-.046.046-.046C.35.305.37.322.37.352.37.42.294.459.217.459.092.459 0 .351 0 .227 0 .099.099 0 .215 0c.134 0 .166.12.166.13 0 .01-.01.01-.013.01C.359.14.357.136.355.13.326.037.261.025.224.025.171.025.083.068.083.229z"/></symbol><symbol id="l"><path d="M.144.694 0 .683V.652C.07.652.078.645.078.596v-.52C.078.031.067.031 0 .031V0l.111.003L.222 0v.031c-.067 0-.078 0-.078.045v.618z"/></symbol><symbol id="m"><path d="M.194.378c-.087 0-.087.1-.087.123 0 .027.001.059.016.084.008.012.031.04.071.04.087 0 .087-.1.087-.123A.164.164 0 0 0 .265.418a.086.086 0 0 0-.071-.04M.078.339c0 .004 0 .027.017.047A.17.17 0 0 1 .194.355c.093 0 .162.069.162.146a.135.135 0 0 1-.041.097.131.131 0 0 0 .09.039l.01-.001C.404.632.399.621.399.609.399.592.412.58.428.58c.01 0 .029.007.029.03a.049.049 0 0 1-.051.049A.154.154 0 0 1 .3.612a.167.167 0 0 1-.106.036C.101.648.032.579.032.502.032.458.054.42.079.399A.138.138 0 0 1 .048.316c0-.031.013-.069.044-.089C.032.21 0 .167 0 .127 0 .055.099 0 .221 0c.118 0 .222.051.222.129a.128.128 0 0 1-.065.114C.325.271.267.271.206.271L.131.272C.099.276.078.307.078.339M.222.023c-.101 0-.17.051-.17.104 0 .046.038.083.082.086h.059c.086 0 .198 0 .198-.086C.391.073.32.023.222.023z"/></symbol><symbol id="n"><path d="M.078.076C.078.031.067.031 0 .031V0l.113.003L.225 0v.031c-.067 0-.078 0-.078.045V.26c0 .104.071.16.135.16C.345.42.356.366.356.309V.076C.356.031.345.031.278.031V0l.113.003L.503 0v.031c-.052 0-.077 0-.078.03v.191c0 .086 0 .117-.031.153C.38.422.347.442.289.442A.158.158 0 0 1 .144.344v.35L0 .683V.652C.07.652.078.645.078.596v-.52z"/></symbol><use xlink:href="#k" transform="matrix(9.9626 0 0 -9.9626 3.659 61.313)"/><use xlink:href="#b" transform="matrix(9.9626 0 0 -9.9626 8.162 61.313)"/><use xlink:href="#l" transform="matrix(9.9626 0 0 -9.9626 13.053 61.203)"/><use xlink:href="#l" transform="matrix(9.9626 0 0 -9.9626 15.823 61.203)"/><use xlink:href="#m" transform="matrix(9.9626 0 0 -9.9626 21.86 63.255)"/><use xlink:href="#c" transform="matrix(9.9626 0 0 -9.9626 26.842 61.203)"/><use xlink:href="#b" transform="matrix(9.9626 0 0 -9.9626 30.887 61.313)"/><use xlink:href="#e" transform="matrix(9.9626 0 0 -9.9626 35.728 63.136)"/><use xlink:href="#n" transform="matrix(9.9626 0 0 -9.9626 41.307 61.203)"/><symbol id="o"><path d="M.084.263c.006.149.09.174.124.174.103 0 .113-.135.113-.174H.084M.083.242h.279c.022 0 .025 0 .025.021 0 .099-.054.196-.179.196C.092.459 0 .356 0 .231 0 .097.105 0 .22 0a.17.17 0 0 1 .167.13c0 .01-.008.012-.013.012C.365.142.363.136.361.128.326.025.236.025.226.025c-.05 0-.09.03-.113.067-.03.048-.03.114-.03.15z"/></symbol><symbol id="p"><path d="M.275.235c.03.038.068.087.092.113A.153.153 0 0 0 .486.4v.031a1.123 1.123 0 0 0-.178 0V.4C.329.398.337.385.337.369A.057.057 0 0 0 .322.334L.26.256.182.357C.173.367.173.369.173.375.173.39.188.399.208.4v.031a1.66 1.66 0 0 0-.203 0V.4C.075.4.076.399.123.339L.222.21.128.091A.16.16 0 0 0 0 .031V0c.026.002.057.003.083.003L.178 0v.031C.156.034.149.047.149.062c0 .022.029.055.09.127l.076-.1C.323.078.336.062.336.056.336.047.327.032.3.031V0l.108.003C.435.003.474.002.504 0v.031C.45.031.432.033.409.062L.275.235z"/></symbol><use xlink:href="#o" transform="matrix(9.9626 0 0 -9.9626 82.793 61.18)"/><use xlink:href="#p" transform="matrix(9.9626 0 0 -9.9626 87.057 61.07)"/><use xlink:href="#k" transform="matrix(9.9626 0 0 -9.9626 92.536 61.18)"/><use xlink:href="#o" transform="matrix(9.9626 0 0 -9.9626 96.9 61.18)"/><use xlink:href="#e" transform="matrix(9.9626 0 0 -9.9626 101.323 63.003)"/><use xlink:href="#i" transform="matrix(9.9626 0 0 -9.9626 106.773 61.18)"/><use xlink:href="#g" transform="matrix(9.9626 0 0 -9.9626 110.788 61.07)"/><use xlink:href="#f" transform="matrix(9.9626 0 0 -9.9626 113.508 61.18)"/><use xlink:href="#h" transform="matrix(9.9626 0 0 -9.9626 118.529 61.07)"/><use xlink:href="#j" transform="matrix(9.9626 0 0 -9.9626 124.078 61.18)"/><symbol id="q"><path d="M.144.388v.317L0 .694V.663C.07.663.078.656.078.607V.011h.025l.036.062A.157.157 0 0 1 .27 0c.119 0 .223.098.223.227 0 .127-.098.226-.212.226A.178.178 0 0 1 .144.388M.147.125v.206c0 .019 0 .02.011.036a.144.144 0 0 0 .118.064C.321.431.357.405.381.367A.269.269 0 0 0 .41.228.268.268 0 0 0 .379.086.137.137 0 0 0 .266.022a.124.124 0 0 0-.105.061C.147.104.147.107.147.125z"/></symbol><symbol id="r"><path d="M.078.344V.076C.078.031.067.031 0 .031V0l.113.003L.225 0v.031c-.067 0-.078 0-.078.045V.26c0 .104.071.16.135.16C.345.42.356.366.356.309V.076C.356.031.345.031.278.031V0l.113.003L.503 0v.031c-.067 0-.078 0-.078.045V.26c0 .104.071.16.135.16C.623.42.634.366.634.309V.076C.634.031.623.031.556.031V0l.113.003L.781 0v.031c-.052 0-.077 0-.078.03v.191c0 .086 0 .117-.031.153C.658.422.625.442.567.442A.158.158 0 0 1 .422.344C.408.431.334.442.289.442.216.442.169.399.141.337v.105L0 .431V.4C.07.4.078.393.078.344z"/></symbol><symbol id="s"><path d="M.346.066V0l.147.011v.031c-.07 0-.078.007-.078.056v.607L.271.694V.663c.07 0 .078-.007.078-.056V.391a.16.16 0 0 1-.126.062A.226.226 0 0 1 0 .226C0 .099.098 0 .212 0c.064 0 .109.034.134.066m0 .268V.129c0-.018 0-.02-.011-.037a.14.14 0 0 0-.118-.07C.172.022.136.048.112.086a.269.269 0 0 0-.029.139c0 .037.002.097.031.142a.137.137 0 0 0 .113.064.13.13 0 0 0 .108-.06C.346.354.346.352.346.334z"/></symbol><use xlink:href="#c" transform="matrix(9.9626 0 0 -9.9626 24.841 102.259)"/><use xlink:href="#o" transform="matrix(9.9626 0 0 -9.9626 28.746 102.369)"/><use xlink:href="#b" transform="matrix(9.9626 0 0 -9.9626 33.31 102.369)"/><use xlink:href="#k" transform="matrix(9.9626 0 0 -9.9626 38.21 102.369)"/><use xlink:href="#n" transform="matrix(9.9626 0 0 -9.9626 42.335 102.259)"/><use xlink:href="#b" transform="matrix(9.9626 0 0 -9.9626 47.974 102.369)"/><use xlink:href="#q" transform="matrix(9.9626 0 0 -9.9626 52.816 102.369)"/><use xlink:href="#l" transform="matrix(9.9626 0 0 -9.9626 58.405 102.259)"/><use xlink:href="#o" transform="matrix(9.9626 0 0 -9.9626 61.125 102.369)"/><use xlink:href="#r" transform="matrix(9.9626 0 0 -9.9626 68.915 102.259)"/><use xlink:href="#o" transform="matrix(9.9626 0 0 -9.9626 77.174 102.369)"/><use xlink:href="#i" transform="matrix(9.9626 0 0 -9.9626 81.508 102.369)"/><use xlink:href="#n" transform="matrix(9.9626 0 0 -9.9626 85.513 102.259)"/><use xlink:href="#f" transform="matrix(9.9626 0 0 -9.9626 91.013 102.369)"/><use xlink:href="#s" transform="matrix(9.9626 0 0 -9.9626 96.323 102.369)"/><use xlink:href="#j" transform="matrix(9.9626 0 0 -9.9626 101.852 102.369)"/><path stroke-width=".399" stroke-miterlimit="10" fill="none" stroke="#000" d="M56.912 26.721 33.146 50.483"/><path stroke-width=".39899202" stroke-linecap="round" stroke-linejoin="round" fill="none" stroke="#000" d="M53.897 26.354c1.282.747 2.357.63 3.156.226-.404.798-.522 1.874.225 3.156M36.16 50.85c-1.282-.747-2.357-.63-3.155-.226.403-.798.521-1.874-.226-3.156"/><path stroke-width=".399" stroke-miterlimit="10" fill="none" stroke="#000" d="m73.105 26.721 23.898 23.894"/><path stroke-width=".39899202" stroke-linecap="round" stroke-linejoin="round" fill="none" stroke="#000" d="M72.74 29.736c.746-1.282.628-2.358.225-3.156.798.404 1.873.521 3.155-.225M97.369 47.6c-.747 1.283-.63 2.358-.225 3.156-.799-.403-1.874-.52-3.156.226"/><path stroke-width=".399" stroke-miterlimit="10" fill="none" stroke="#000" d="M78.994 58.712H50.438"/><path stroke-width=".399" stroke-linecap="round" stroke-linejoin="round" fill="none" stroke="#000" d="M52.31 61.104c-.378-1.435-1.222-2.113-2.072-2.392.85-.278 1.694-.956 2.073-2.39"/><path stroke-width=".399" stroke-miterlimit="10" fill="none" stroke="#000" d="M65.008 26.44v64.983"/><path stroke-width=".399" stroke-linecap="round" stroke-linejoin="round" fill="none" stroke="#000" d="M67.399 89.55c-1.435.379-2.112 1.223-2.391 2.073-.279-.85-.956-1.694-2.391-2.073"/><path stroke-width=".399" stroke-miterlimit="10" fill="none" stroke="#000" d="m58.03 91.822-24.884-24.88"/><path stroke-width=".39899202" stroke-linecap="round" stroke-linejoin="round" fill="none" stroke="#000" d="M32.78 69.957c.746-1.282.628-2.358.225-3.156.798.404 1.873.521 3.156-.226"/></svg>