<svg xmlns="http://www.w3.org/2000/svg" xmlns:xlink="http://www.w3.org/1999/xlink" width="458.281" height="74.919" viewBox="0 0 343.711 56.189"><symbol id="a"><path d="M.154.384c0 .032 0 .047-.04.047H.041C.025.431 0 .431 0 .4 0 .37.026.37.04.37h.045V.061H.041C.025.061 0 .061 0 .03 0 0 .026 0 .04 0h.159c.014 0 .04 0 .04.03 0 .031-.025.031-.041.031H.154v.177c0 .1.074.138.125.138.053 0 .067-.028.067-.088V.061H.307C.291.061.266.061.266.03.266 0 .293 0 .307 0H.46C.474 0 .5 0 .5.03.5.061.475.061.459.061H.415v.232c0 .101-.051.144-.13.144A.187.187 0 0 1 .154.384z"/></symbol><symbol id="b"><path d="M.369.197c.021 0 .04 0 .04.037 0 .114-.064.212-.194.212A.219.219 0 0 1 0 .223C0 .101.101 0 .23 0c.132 0 .179.09.179.115C.409.143.38.143.374.143.356.143.348.14.341.121.319.07.265.061.237.061c-.075 0-.15.05-.166.136h.298m-.297.06C.086.33.145.385.215.385.267.385.329.36.338.257H.072z"/></symbol><symbol id="c"><path d="M.441.374c.03 0 .051 0 .051.031 0 .03-.024.03-.042.03H.335c-.018 0-.042 0-.042-.03 0-.031.023-.031.042-.031h.049L.334.076H.333a1.117 1.117 0 0 1-.029.113C.286.252.283.263.248.263c-.01 0-.029 0-.04-.022A3.763 3.763 0 0 1 .161.076H.16L.108.374h.049c.018 0 .042 0 .042.03 0 .031-.023.031-.042.031H.042C.024.435 0 .435 0 .405 0 .374.021.374.051.374l.06-.336C.115.015.118 0 .158 0s.043.009.061.07c.025.088.026.102.029.124h.001C.254.142.291.025.295.017.307 0 .325 0 .337 0c.037 0 .04.016.044.038l.06.336z"/></symbol><use xlink:href="#a" transform="matrix(9.9626 0 0 -9.9626 54.516 23.113)"/><use xlink:href="#b" transform="matrix(9.9626 0 0 -9.9626 60.174 23.173)"/><use xlink:href="#c" transform="matrix(9.9626 0 0 -9.9626 65.016 23.153)"/><symbol id="d"><path d="M.232.01c0 .003 0 .005-.017.022C.09.158.058.347.058.5c0 .174.038.348.161.473.013.012.013.014.013.017 0 .007-.004.01-.01.01-.01 0-.1-.068-.159-.195A.727.727 0 0 1 0 .5C0 .422.011.301.066.188A.432.432 0 0 1 .222 0c.006 0 .01.003.01.01z"/></symbol><use xlink:href="#d" transform="matrix(9.9626 0 0 -9.9626 71.073 25.604)"/><symbol id="e"><path d="M.333.389C.315.426.286.453.241.453.124.453 0 .306 0 .16 0 .066.055 0 .133 0c.02 0 .07.004.13.075A.09.09 0 0 1 .354 0c.035 0 .058.023.074.055.017.036.03.097.03.099 0 .01-.009.01-.012.01C.436.164.435.16.432.146.415.081.397.022.356.022c-.027 0-.03.026-.03.046 0 .022.002.03.013.074l.022.09.036.14C.404.4.404.402.404.406c0 .017-.012.027-.029.027C.351.433.336.411.333.389M.268.13C.263.112.263.11.248.093.204.038.163.022.135.022c-.05 0-.064.055-.064.094 0 .05.032.173.055.219.031.059.076.096.116.096.065 0 .079-.082.079-.088C.321.337.319.331.318.326L.268.13z"/></symbol><symbol id="f"><path d="M.117.194C.117.26.092.299.053.299A.051.051 0 0 1 0 .246C0 .219.02.193.053.193c.012 0 .025.004.035.013l.005.003C.094.209.095.208.095.194A.242.242 0 0 0 .027.027C.016.016.016.014.016.011.016.004.021 0 .026 0c.011 0 .091.077.091.194z"/></symbol><symbol id="g"><path d="M.214.694c0 .001 0 .011-.013.011C.178.705.105.697.079.695.071.694.06.693.06.674.06.663.07.663.085.663.133.663.134.654.134.646L.131.626l-.126-.5C.002.115 0 .108 0 .092A.09.09 0 0 1 .091 0c.033 0 .058.02.075.056.018.038.03.096.03.098 0 .01-.009.01-.012.01C.174.164.173.16.17.146.153.081.134.022.094.022c-.03 0-.03.032-.03.046A.14.14 0 0 0 .07.116l.144.578z"/></symbol><use xlink:href="#e" transform="matrix(9.9626 0 0 -9.9626 74.36 23.223)"/><use xlink:href="#f" transform="matrix(9.9626 0 0 -9.9626 80.089 25.036)"/><use xlink:href="#g" transform="matrix(9.9626 0 0 -9.9626 84.104 23.223)"/><symbol id="h"><path d="M.226.636c0 .027-.002.028-.03.028C.132.601.041.6 0 .6V.564c.024 0 .09 0 .145.028v-.51c0-.033 0-.046-.1-.046H.007V0l.178.004L.364 0v.036H.326c-.1 0-.1.013-.1.046v.554z"/></symbol><use xlink:href="#h" transform="matrix(6.9738 0 0 -6.9738 87.388 24.608)"/><symbol id="i"><path d="M.232.5a.729.729 0 0 1-.066.312A.432.432 0 0 1 .01 1C.004 1 0 .996 0 .99 0 .987 0 .985.019.967.117.868.174.709.174.5.174.329.137.153.013.027 0 .015 0 .013 0 .01 0 .004.004 0 .01 0c.01 0 .1.068.159.195C.22.305.232.416.232.5z"/></symbol><use xlink:href="#i" transform="matrix(9.9626 0 0 -9.9626 91.666 25.604)"/><path stroke-width=".398" stroke-miterlimit="10" fill="none" stroke="#000" d="M54.396 28.095h40.576"/><symbol id="j"><path d="M.406.374h.03c.015 0 .04 0 .04.03 0 .031-.024.031-.04.031H.319c-.015 0-.04 0-.04-.03 0-.031.024-.031.04-.031h.028L.238.052.129.374h.028c.015 0 .04 0 .04.03 0 .031-.024.031-.04.031H.04c-.016 0-.04 0-.04-.031 0-.03.025-.03.04-.03h.03l.115-.34C.197 0 .217 0 .238 0 .257 0 .28 0 .291.033l.115.341z"/></symbol><symbol id="k"><path d="M.154.486c0 .059.058.112.121.112.074 0 .132-.073.132-.16 0-.096-.07-.161-.14-.161-.078 0-.113.088-.113.136v.073m0-.219A.157.157 0 0 1 .27.216c.109 0 .206.095.206.222 0 .123-.089.221-.195.221A.188.188 0 0 1 .154.61c0 .029-.002.043-.04.043H.041C.025.653 0 .653 0 .622c0-.03.026-.03.04-.03h.045V.061H.041C.025.061 0 .061 0 .03 0 0 .026 0 .04 0h.159c.014 0 .04 0 .04.03 0 .031-.025.031-.041.031H.154v.206z"/></symbol><symbol id="l"><path d="M.197.376h.164c.015 0 .04 0 .04.03 0 .031-.024.031-.04.031H.197v.082c0 .019 0 .041-.034.041C.128.56.128.539.128.519V.437H.041C.025.437 0 .437 0 .406c0-.03.025-.03.04-.03h.088V.132C.128.036.196 0 .269 0c.074 0 .155.043.155.132 0 .018 0 .039-.035.039C.356.171.355.15.355.133.354.071.297.061.274.061.197.061.197.113.197.138v.238z"/></symbol><use xlink:href="#j" transform="matrix(9.9626 0 0 -9.9626 54.635 37.898)"/><use xlink:href="#k" transform="matrix(9.9626 0 0 -9.9626 59.746 40.07)"/><use xlink:href="#l" transform="matrix(9.9626 0 0 -9.9626 65.106 37.918)"/><use xlink:href="#d" transform="matrix(9.9626 0 0 -9.9626 71.073 40.349)"/><use xlink:href="#e" transform="matrix(9.9626 0 0 -9.9626 74.36 37.968)"/><use xlink:href="#f" transform="matrix(9.9626 0 0 -9.9626 80.089 39.78)"/><use xlink:href="#g" transform="matrix(9.9626 0 0 -9.9626 84.104 37.968)"/><use xlink:href="#h" transform="matrix(6.9738 0 0 -6.9738 87.388 39.352)"/><use xlink:href="#i" transform="matrix(9.9626 0 0 -9.9626 91.666 40.349)"/><symbol id="m"><path d="M.311.038C.333.007.381.006.419.006c.028 0 .05 0 .05.031 0 .03-.025.03-.04.03-.042 0-.052.005-.06.008v.216c0 .071-.054.155-.198.155-.043 0-.145 0-.145-.073 0-.03.021-.046.045-.046.015 0 .043.009.044.046 0 .008.001.009.021.011a.497.497 0 0 0 .036.001C.248.385.3.354.3.283.123.28 0 .23 0 .134 0 .065.063 0 .165 0a.28.28 0 0 1 .146.038M.3.224V.14C.3.117.3.096.261.078.225.061.18.061.172.061.11.061.069.095.069.134c0 .049.086.086.231.09z"/></symbol><symbol id="n"><path d="M.226.261.158.273C.129.277.061.289.061.328c0 .026.032.057.127.057.083 0 .097-.03.1-.056C.289.312.291.295.322.295c.035 0 .035.021.035.041v.069c0 .016 0 .041-.03.041C.303.446.299.432.297.425.253.446.209.446.19.446.023.446 0 .364 0 .328 0 .236.105.219.197.205.246.197.326.184.326.131c0-.037-.037-.07-.128-.07C.151.061.095.072.07.15.065.168.061.179.035.179 0 .179 0 .158 0 .138V.041C0 .025 0 0 .03 0c.009 0 .025.001.037.038A.213.213 0 0 1 .197 0c.158 0 .19.083.19.131 0 .104-.129.125-.161.13z"/></symbol><symbol id="o"><path d="M.231.39c0 .031-.006.041-.04.041H.049c-.015 0-.041 0-.041-.03C.008.37.034.37.049.37h.113V.061H.041C.025.061 0 .061 0 .03 0 0 .026 0 .041 0h.295c.015 0 .041 0 .041.03 0 .031-.026.031-.041.031H.231V.39m0 .172a.05.05 0 0 1-.05.05.05.05 0 0 1-.05-.05.05.05 0 0 1 .05-.05.05.05 0 0 1 .05.05z"/></symbol><symbol id="p"><path d="M.204.405a.099.099 0 0 0-.096.1c0 .057.044.101.096.101A.099.099 0 0 0 .3.506.098.098 0 0 0 .204.405M.114.37a.182.182 0 0 1 .09-.025c.092 0 .165.072.165.161 0 .03-.009.059-.026.087A.146.146 0 0 0 .401.61.042.042 0 0 1 .44.576a.04.04 0 0 1 .04.041C.48.64.461.671.407.671A.183.183 0 0 1 .301.636a.175.175 0 0 1-.097.03.163.163 0 0 1-.165-.16C.039.463.056.43.071.411a.117.117 0 0 1-.02-.068c0-.035.014-.06.023-.072C0 .226 0 .158 0 .147 0 .061.105 0 .233 0s.233.062.233.147a.13.13 0 0 1-.069.114.29.29 0 0 1-.145.029h-.07C.174.29.161.29.153.292c-.015 0-.021 0-.033.014a.068.068 0 0 0-.012.036.1.1 0 0 0 .006.028M.233.06c-.1 0-.175.043-.175.087 0 .018.009.05.041.07.025.016.034.016.107.016.089 0 .202 0 .202-.086C.408.103.333.06.233.06z"/></symbol><use xlink:href="#m" transform="matrix(9.9626 0 0 -9.9626 121.157 23.173)"/><use xlink:href="#n" transform="matrix(9.9626 0 0 -9.9626 126.557 23.173)"/><use xlink:href="#n" transform="matrix(9.9626 0 0 -9.9626 131.787 23.173)"/><use xlink:href="#o" transform="matrix(9.9626 0 0 -9.9626 137.077 23.113)"/><use xlink:href="#p" transform="matrix(9.9626 0 0 -9.9626 141.82 25.394)"/><use xlink:href="#a" transform="matrix(9.9626 0 0 -9.9626 146.88 23.113)"/><use xlink:href="#d" transform="matrix(9.9626 0 0 -9.9626 152.977 25.604)"/><symbol id="q"><path d="M.192.694c0 .001 0 .011-.013.011C.156.705.083.697.057.695.049.694.038.693.038.675c0-.012.009-.012.024-.012.048 0 .05-.007.05-.017C.112.639.103.605.098.584L.016.258C.004.208 0 .192 0 .157 0 .062.053 0 .127 0c.118 0 .241.149.241.293 0 .091-.053.16-.133.16C.189.453.148.424.118.393l.074.301M.098.316C.104.338.104.34.113.351c.049.065.094.08.12.08.036 0 .063-.03.063-.094A.71.71 0 0 0 .245.125C.212.058.166.022.127.022.093.022.06.049.06.123c0 .019 0 .038.016.101l.022.092z"/></symbol><use xlink:href="#q" transform="matrix(9.9626 0 0 -9.9626 156.334 23.223)"/><use xlink:href="#f" transform="matrix(9.9626 0 0 -9.9626 160.997 25.036)"/><use xlink:href="#e" transform="matrix(9.9626 0 0 -9.9626 164.972 23.223)"/><use xlink:href="#i" transform="matrix(9.9626 0 0 -9.9626 170.403 25.604)"/><use xlink:href="#a" transform="matrix(9.9626 0 0 -9.9626 194.95 8.369)"/><use xlink:href="#b" transform="matrix(9.9626 0 0 -9.9626 200.608 8.429)"/><use xlink:href="#c" transform="matrix(9.9626 0 0 -9.9626 205.45 8.409)"/><use xlink:href="#d" transform="matrix(9.9626 0 0 -9.9626 211.507 10.86)"/><use xlink:href="#e" transform="matrix(9.9626 0 0 -9.9626 214.794 8.479)"/><use xlink:href="#f" transform="matrix(9.9626 0 0 -9.9626 220.523 10.292)"/><use xlink:href="#g" transform="matrix(9.9626 0 0 -9.9626 224.538 8.479)"/><use xlink:href="#h" transform="matrix(6.9738 0 0 -6.9738 227.822 9.863)"/><use xlink:href="#i" transform="matrix(9.9626 0 0 -9.9626 232.1 10.86)"/><path stroke-width=".398" stroke-miterlimit="10" fill="none" stroke="#000" d="M194.83 13.35h40.576"/><use xlink:href="#j" transform="matrix(9.9626 0 0 -9.9626 195.07 23.153)"/><use xlink:href="#k" transform="matrix(9.9626 0 0 -9.9626 200.18 25.325)"/><use xlink:href="#l" transform="matrix(9.9626 0 0 -9.9626 205.54 23.173)"/><use xlink:href="#d" transform="matrix(9.9626 0 0 -9.9626 211.507 25.604)"/><use xlink:href="#e" transform="matrix(9.9626 0 0 -9.9626 214.794 23.223)"/><use xlink:href="#f" transform="matrix(9.9626 0 0 -9.9626 220.523 25.036)"/><use xlink:href="#g" transform="matrix(9.9626 0 0 -9.9626 224.538 23.223)"/><use xlink:href="#h" transform="matrix(6.9738 0 0 -6.9738 227.822 24.608)"/><use xlink:href="#i" transform="matrix(9.9626 0 0 -9.9626 232.1 25.604)"/><path stroke-width=".398" stroke-miterlimit="10" fill="none" stroke="#000" d="M120.609 28.095h119.313"/><use xlink:href="#j" transform="matrix(9.9626 0 0 -9.9626 160.712 37.898)"/><use xlink:href="#k" transform="matrix(9.9626 0 0 -9.9626 165.823 40.07)"/><use xlink:href="#l" transform="matrix(9.9626 0 0 -9.9626 171.183 37.918)"/><use xlink:href="#d" transform="matrix(9.9626 0 0 -9.9626 177.15 40.349)"/><use xlink:href="#q" transform="matrix(9.9626 0 0 -9.9626 180.507 37.968)"/><use xlink:href="#f" transform="matrix(9.9626 0 0 -9.9626 185.17 39.78)"/><use xlink:href="#g" transform="matrix(9.9626 0 0 -9.9626 189.185 37.968)"/><use xlink:href="#h" transform="matrix(6.9738 0 0 -6.9738 192.475 39.352)"/><use xlink:href="#i" transform="matrix(9.9626 0 0 -9.9626 196.752 40.349)"/><use xlink:href="#e" transform="matrix(9.9626 0 0 -9.9626 264.762 37.968)"/><symbol id="r"><path d="M.491.893c.008.014.008.016.008.019 0 .007-.006.02-.02.02C.467.932.464.926.457.912L.008.039C0 .025 0 .023 0 .02 0 .012.007 0 .02 0c.012 0 .015.006.022.02l.449.873z"/></symbol><use xlink:href="#r" transform="matrix(9.9626 0 0 -9.9626 273.783 40.01)"/><symbol id="s"><path d="M.631.194c.015 0 .034 0 .034.02s-.019.02-.033.02H.033C.019.234 0 .234 0 .214s.019-.02.034-.02h.597M.632 0c.014 0 .033 0 .033.02S.646.04.631.04H.034C.019.04 0 .04 0 .02S.019 0 .033 0h.599z"/></symbol><use xlink:href="#s" transform="matrix(9.9626 0 0 -9.9626 272.956 36.533)"/><use xlink:href="#q" transform="matrix(9.9626 0 0 -9.9626 283.382 37.968)"/><path stroke-width=".398" stroke-miterlimit="10" fill="none" stroke="#000" d="M53.201 42.839H287.19"/><symbol id="t"><path d="M.239.57c0 .031-.006.041-.04.041H.041C.025.611 0 .611 0 .58 0 .55.026.55.04.55h.13V.061H.041C.025.061 0 .061 0 .03 0 0 .026 0 .04 0h.329c.015 0 .04 0 .04.03 0 .031-.024.031-.04.031h-.13V.57z"/></symbol><use xlink:href="#m" transform="matrix(9.9626 0 0 -9.9626 146.808 52.662)"/><use xlink:href="#t" transform="matrix(9.9626 0 0 -9.9626 152.068 52.602)"/><use xlink:href="#o" transform="matrix(9.9626 0 0 -9.9626 157.498 52.602)"/><use xlink:href="#m" transform="matrix(9.9626 0 0 -9.9626 162.499 52.662)"/><use xlink:href="#n" transform="matrix(9.9626 0 0 -9.9626 167.899 52.662)"/><use xlink:href="#d" transform="matrix(9.9626 0 0 -9.9626 173.398 55.093)"/><use xlink:href="#e" transform="matrix(9.9626 0 0 -9.9626 176.684 52.712)"/><use xlink:href="#f" transform="matrix(9.9626 0 0 -9.9626 182.413 54.525)"/><use xlink:href="#q" transform="matrix(9.9626 0 0 -9.9626 186.458 52.712)"/><use xlink:href="#i" transform="matrix(9.9626 0 0 -9.9626 190.824 55.093)"/></svg>