<svg xmlns="http://www.w3.org/2000/svg" xmlns:xlink="http://www.w3.org/1999/xlink" width="558.785" height="250.173" viewBox="0 0 419.089 187.63"><path stroke-width=".399" stroke-miterlimit="10" fill="none" stroke="#000" d="M.2 27.695h42.617v-13.56H.199z"/><symbol id="a"><path d="M.275.235c.03.038.068.087.092.113A.153.153 0 0 0 .486.4v.031a1.123 1.123 0 0 0-.178 0V.4C.329.398.337.385.337.369A.057.057 0 0 0 .322.334L.26.256.182.357C.173.367.173.369.173.375.173.39.188.399.208.4v.031a1.66 1.66 0 0 0-.203 0V.4C.075.4.076.399.123.339L.222.21.128.091A.16.16 0 0 0 0 .031V0c.026.002.057.003.083.003L.178 0v.031C.156.034.149.047.149.062c0 .022.029.055.09.127l.076-.1C.323.078.336.062.336.056.336.047.327.032.3.031V0l.108.003C.435.003.474.002.504 0v.031C.45.031.432.033.409.062L.275.235z"/></symbol><symbol id="b"><path d="M.631.194c.015 0 .034 0 .034.02s-.019.02-.033.02H.033C.019.234 0 .234 0 .214s.019-.02.034-.02h.597M.632 0c.014 0 .033 0 .033.02S.646.04.631.04H.034C.019.04 0 .04 0 .02S.019 0 .033 0h.599z"/></symbol><symbol id="c"><path d="M.078.344V.076C.078.031.067.031 0 .031V0l.113.003L.225 0v.031c-.067 0-.078 0-.078.045V.26c0 .104.071.16.135.16C.345.42.356.366.356.309V.076C.356.031.345.031.278.031V0l.113.003L.503 0v.031c-.052 0-.077 0-.078.03v.191c0 .086 0 .117-.031.153C.38.422.347.442.289.442.216.442.169.399.141.337v.105L0 .431V.4C.07.4.078.393.078.344z"/></symbol><symbol id="d"><path d="M.359.09V0l.144.011v.031c-.07 0-.078.007-.078.056v.355L.278.442V.411c.07 0 .078-.007.078-.056V.177C.356.09.308.022.235.022.151.022.147.069.147.121v.332L0 .442V.411C.078.411.078.408.078.319v-.15C.078.091.078 0 .23 0c.056 0 .1.028.129.09z"/></symbol><symbol id="e"><path d="M.144.694 0 .683V.652C.07.652.078.645.078.596v-.52C.078.031.067.031 0 .031V0l.111.003L.222 0v.031c-.067 0-.078 0-.078.045v.618z"/></symbol><use xlink:href="#a" transform="matrix(9.9626 0 0 -9.9626 3.64 24.375)"/><use xlink:href="#b" transform="matrix(9.9626 0 0 -9.9626 12.656 23.05)"/><use xlink:href="#c" transform="matrix(9.9626 0 0 -9.9626 23.495 24.375)"/><use xlink:href="#d" transform="matrix(9.9626 0 0 -9.9626 28.755 24.485)"/><use xlink:href="#e" transform="matrix(9.9626 0 0 -9.9626 34.304 24.375)"/><use xlink:href="#e" transform="matrix(9.9626 0 0 -9.9626 37.074 24.375)"/><symbol id="f"><path d="M.205.64c0 .024 0 .026-.023.026C.12.602.032.602 0 .602V.571a.3.3 0 0 1 .131.026V.079C.131.043.128.031.038.031H.006V0c.035.003.122.003.162.003.04 0 .127 0 .162-.003v.031H.298c-.09 0-.093.011-.093.048V.64z"/></symbol><use xlink:href="#f" transform="matrix(9.9626 0 0 -9.9626 47.423 23.876)"/><path stroke-width=".399" stroke-miterlimit="10" fill="none" stroke="#000" d="M5.734 58.53h31.548V45.664H5.734z"/><symbol id="g"><path d="M.396.541a.094.094 0 0 0 .093.064v.031a.94.94 0 0 0-.162 0V.605C.358.604.374.587.374.562.374.552.373.55.368.538L.267.292.156.561C.152.571.15.575.15.579c0 .026.037.026.056.026v.031a1.646 1.646 0 0 0-.206 0V.605c.048 0 .067 0 .081-.035l.15-.365A1.487 1.487 0 0 0 .206.146C.184.091.156.022.092.022c-.005 0-.028 0-.047.018.031.004.039.026.039.042a.04.04 0 0 1-.042.042C.022.124 0 .111 0 .081 0 .036.042 0 .092 0 .155 0 .196.057.22.114l.176.427z"/></symbol><use xlink:href="#g" transform="matrix(9.9626 0 0 -9.9626 9.244 55.315)"/><use xlink:href="#b" transform="matrix(9.9626 0 0 -9.9626 18.19 51.948)"/><use xlink:href="#a" transform="matrix(9.9626 0 0 -9.9626 28.83 53.273)"/><symbol id="h"><path d="M.077.077.183.18c.156.138.216.192.216.292 0 .114-.09.194-.212.194A.185.185 0 0 1 0 .485C0 .429.05.429.053.429c.017 0 .052.012.052.053a.05.05 0 0 1-.053.052L.039.533a.144.144 0 0 0 .135.102C.265.635.308.554.308.472c0-.08-.05-.159-.105-.221L.011.037C0 .026 0 .024 0 0h.371l.028.174H.374C.369.144.362.1.352.085.345.077.279.077.257.077h-.18z"/></symbol><use xlink:href="#h" transform="matrix(9.9626 0 0 -9.9626 41.5 55.404)"/><path stroke-width=".399" stroke-miterlimit="10" fill="none" stroke="#000" d="M3.243 91.58h36.53V74.976H3.243z"/><symbol id="i"><path d="M.106.053a.053.053 0 0 1-.053.053A.053.053 0 0 1 0 .053C0 .024.024 0 .053 0c.029 0 .053.024.053.053z"/></symbol><symbol id="j"><path d="M.083.229c0 .163.082.205.135.205C.227.434.29.433.325.397.284.394.278.364.278.351c0-.026.018-.046.046-.046C.35.305.37.322.37.352.37.42.294.459.217.459.092.459 0 .351 0 .227 0 .099.099 0 .215 0c.134 0 .166.12.166.13 0 .01-.01.01-.013.01C.359.14.357.136.355.13.326.037.261.025.224.025.171.025.083.068.083.229z"/></symbol><symbol id="k"><path d="M.291.087C.295.047.322.005.369.005.39.005.451.019.451.1v.056H.426V.1C.426.042.401.036.39.036c-.033 0-.037.045-.037.05v.2c0 .042 0 .081-.036.118A.191.191 0 0 1 .18.459C.098.459.029.412.029.346c0-.03.02-.047.046-.047.028 0 .046.02.046.046C.121.357.116.39.07.391c.027.035.076.046.108.046.049 0 .106-.039.106-.128V.272C.233.269.163.266.1.236.025.202 0 .15 0 .106 0 .025.097 0 .16 0c.066 0 .112.04.131.087M.284.251v-.1C.284.056.212.022.167.022c-.049 0-.09.035-.09.085 0 .055.042.138.207.144z"/></symbol><symbol id="l"><path d="M.232.01c0 .003 0 .005-.017.022C.09.158.058.347.058.5c0 .174.038.348.161.473.013.012.013.014.013.017 0 .007-.004.01-.01.01-.01 0-.1-.068-.159-.195A.727.727 0 0 1 0 .5C0 .422.011.301.066.188A.432.432 0 0 1 .222 0c.006 0 .01.003.01.01z"/></symbol><symbol id="m"><path d="M.232.5a.729.729 0 0 1-.066.312A.432.432 0 0 1 .01 1C.004 1 0 .996 0 .99 0 .987 0 .985.019.967.117.868.174.709.174.5.174.329.137.153.013.027 0 .015 0 .013 0 .01 0 .004.004 0 .01 0c.01 0 .1.068.159.195C.22.305.232.416.232.5z"/></symbol><use xlink:href="#g" transform="matrix(9.9626 0 0 -9.9626 6.753 87.81)"/><use xlink:href="#i" transform="matrix(9.9626 0 0 -9.9626 11.854 85.768)"/><use xlink:href="#j" transform="matrix(9.9626 0 0 -9.9626 14.106 85.878)"/><use xlink:href="#k" transform="matrix(9.9626 0 0 -9.9626 18.609 85.878)"/><use xlink:href="#e" transform="matrix(9.9626 0 0 -9.9626 23.5 85.768)"/><use xlink:href="#e" transform="matrix(9.9626 0 0 -9.9626 26.27 85.768)"/><use xlink:href="#l" transform="matrix(9.9626 0 0 -9.9626 29.697 88.259)"/><use xlink:href="#m" transform="matrix(9.9626 0 0 -9.9626 33.154 88.259)"/><symbol id="n"><path d="M.248.374c.082.027.14.097.14.176C.388.632.3.688.204.688.103.688.027.628.027.552.027.519.049.5.078.5.109.5.129.522.129.551c0 .05-.047.05-.062.05C.098.65.164.663.2.663.241.663.296.641.296.551A.25.25 0 0 0 .268.437C.238.389.204.386.179.385A.554.554 0 0 0 .14.382C.132.381.125.38.125.37c0-.011.007-.011.024-.011h.044C.275.359.312.291.312.193.312.057.243.028.199.028.156.028.081.045.046.104.081.099.112.121.112.159a.054.054 0 0 1-.056.056C.032.215 0 .201 0 .157 0 .066.093 0 .202 0c.122 0 .213.091.213.193 0 .082-.063.16-.167.181z"/></symbol><use xlink:href="#n" transform="matrix(9.9626 0 0 -9.9626 43.91 84.936)"/><path stroke-width=".399" stroke-miterlimit="10" fill="none" stroke="#000" d="M21.508 27.894v17.171"/><path stroke-width=".399" stroke-linecap="round" stroke-linejoin="round" fill="none" stroke="#000" d="M23.899 43.192c-1.435.379-2.112 1.222-2.391 2.072-.279-.85-.956-1.693-2.391-2.072"/><path stroke-width=".399" stroke-miterlimit="10" fill="none" stroke="#000" d="M21.508 58.73v15.649"/><path stroke-width=".399" stroke-linecap="round" stroke-linejoin="round" fill="none" stroke="#000" d="M23.899 72.506c-1.435.378-2.112 1.222-2.391 2.072-.279-.85-.956-1.694-2.391-2.072"/><symbol id="o"><path d="M.211.37h.122c.015 0 .04 0 .04.03 0 .031-.024.031-.04.031H.211v.047c0 .078.067.078.097.078 0-.004.009-.043.044-.043.02 0 .043.016.043.044 0 .06-.08.06-.096.06C.219.617.142.571.142.484V.431h-.1C.026.431.001.431.001.4c0-.03.025-.03.04-.03h.101V.061H.041C.026.061 0 .061 0 .031 0 0 .026 0 .041 0h.271c.015 0 .041 0 .041.03 0 .031-.026.031-.041.031H.211V.37z"/></symbol><symbol id="p"><path d="M.239.57c0 .031-.006.041-.04.041H.041C.025.611 0 .611 0 .58 0 .55.026.55.04.55h.13V.061H.041C.025.061 0 .061 0 .03 0 0 .026 0 .04 0h.329c.015 0 .04 0 .04.03 0 .031-.024.031-.04.031h-.13V.57z"/></symbol><symbol id="q"><path d="M.41.222C.41.347.317.446.205.446.093.446 0 .347 0 .222 0 .095.095 0 .205 0 .315 0 .41.096.41.222M.205.061C.131.061.069.136.069.229c0 .091.065.156.136.156C.277.385.341.32.341.229.341.136.279.061.205.061z"/></symbol><symbol id="r"><path d="M.441.374c.03 0 .051 0 .051.031 0 .03-.024.03-.042.03H.335c-.018 0-.042 0-.042-.03 0-.031.023-.031.042-.031h.049L.334.076H.333a1.117 1.117 0 0 1-.029.113C.286.252.283.263.248.263c-.01 0-.029 0-.04-.022A3.763 3.763 0 0 1 .161.076H.16L.108.374h.049c.018 0 .042 0 .042.03 0 .031-.023.031-.042.031H.042C.024.435 0 .435 0 .405 0 .374.021.374.051.374l.06-.336C.115.015.118 0 .158 0s.043.009.061.07c.025.088.026.102.029.124h.001C.254.142.291.025.295.017.307 0 .325 0 .337 0c.037 0 .04.016.044.038l.06.336z"/></symbol><symbol id="s"><path d="M.264.028c0 .015-.007.019-.025.031a.393.393 0 0 0-.17.329c0 .1.038.239.172.33.016.011.023.015.023.03 0 .008-.005.028-.031.028C.204.776 0 .644 0 .388 0 .269.046.179.081.129.134.056.209 0 .233 0c.026 0 .031.02.031.028z"/></symbol><symbol id="t"><path d="M.206.581c0 .016 0 .041-.03.041C.157.622.151.61.146.598.108.513.056.502.037.5.021.499 0 .497 0 .469c0-.025.018-.03.033-.03.019 0 .06.006.104.044V.061H.046c-.016 0-.04 0-.04-.031 0-.03.025-.03.04-.03h.251c.015 0 .04 0 .04.03 0 .031-.024.031-.04.031H.206v.52z"/></symbol><symbol id="u"><path d="M.102.142A.109.109 0 0 0 .028.06C.018.057 0 .052 0 .032 0 .017.015 0 .032 0c.032 0 .134.054.134.164 0 .061-.039.1-.083.1A.06.06 0 0 1 .02.202C.02.164.049.139.082.139l.02.003z"/></symbol><symbol id="v"><path d="M.015.058C.006.05 0 .045 0 .031 0 0 .025 0 .041 0H.38c.033 0 .04.009.04.041v.026c0 .019 0 .041-.034.041C.351.108.351.089.351.061H.113c.059.051.155.126.198.166.063.056.109.12.109.2 0 .12-.101.195-.223.195C.079.622 0 .54 0 .455A.045.045 0 1 1 .089.452a.042.042 0 0 1-.014.032C.09.53.137.561.192.561.274.561.351.515.351.427.351.357.302.299.236.244L.015.058z"/></symbol><symbol id="w"><path d="M.264.388a.455.455 0 0 1-.081.259C.13.72.055.776.031.776A.029.029 0 0 1 0 .748C0 .733.011.726.016.723A.393.393 0 0 0 .195.388c0-.1-.037-.239-.172-.33C.008.048 0 .043 0 .028 0 .02.006 0 .031 0 .06 0 .264.132.264.388z"/></symbol><symbol id="x"><path d="M.125.062A.063.063 0 1 1 0 .063.063.063 0 0 1 .125.062z"/></symbol><symbol id="y"><path d="M.323.345a.176.176 0 0 1 .084.147c0 .074-.073.141-.188.141-.12 0-.19-.048-.19-.117A.045.045 0 1 1 .118.514a.041.041 0 0 1-.009.027C.14.572.211.572.22.572.288.572.338.536.338.491A.117.117 0 0 0 .296.404C.264.378.239.376.203.374.146.37.131.37.131.341.131.31.155.31.171.31h.046c.099 0 .15-.067.15-.125C.367.124.311.061.22.061.18.061.103.072.077.119.082.124.089.13.089.15a.044.044 0 0 1-.044.044C.022.194 0 .179 0 .147 0 .058.097 0 .22 0c.131 0 .216.092.216.185 0 .071-.047.13-.113.16z"/></symbol><symbol id="z"><path d="M.311.038C.333.007.381.006.419.006c.028 0 .05 0 .05.031 0 .03-.025.03-.04.03-.042 0-.052.005-.06.008v.216c0 .071-.054.155-.198.155-.043 0-.145 0-.145-.073 0-.03.021-.046.045-.046.015 0 .043.009.044.046 0 .008.001.009.021.011a.497.497 0 0 0 .036.001C.248.385.3.354.3.283.123.28 0 .23 0 .134 0 .065.063 0 .165 0a.28.28 0 0 1 .146.038M.3.224V.14C.3.117.3.096.261.078.225.061.18.061.172.061.11.061.069.095.069.134c0 .049.086.086.231.09z"/></symbol><symbol id="A"><path d="M.226.261.158.273C.129.277.061.289.061.328c0 .026.032.057.127.057.083 0 .097-.03.1-.056C.289.312.291.295.322.295c.035 0 .035.021.035.041v.069c0 .016 0 .041-.03.041C.303.446.299.432.297.425.253.446.209.446.19.446.023.446 0 .364 0 .328 0 .236.105.219.197.205.246.197.326.184.326.131c0-.037-.037-.07-.128-.07C.151.061.095.072.07.15.065.168.061.179.035.179 0 .179 0 .158 0 .138V.041C0 .025 0 0 .03 0c.009 0 .025.001.037.038A.213.213 0 0 1 .197 0c.158 0 .19.083.19.131 0 .104-.129.125-.161.13z"/></symbol><symbol id="B"><path d="M.231.39c0 .031-.006.041-.04.041H.049c-.015 0-.041 0-.041-.03C.008.37.034.37.049.37h.113V.061H.041C.025.061 0 .061 0 .03 0 0 .026 0 .041 0h.295c.015 0 .041 0 .041.03 0 .031-.026.031-.041.031H.231V.39m0 .172a.05.05 0 0 1-.05.05.05.05 0 0 1-.05-.05.05.05 0 0 1 .05-.05.05.05 0 0 1 .05.05z"/></symbol><symbol id="C"><path d="M.204.405a.099.099 0 0 0-.096.1c0 .057.044.101.096.101A.099.099 0 0 0 .3.506.098.098 0 0 0 .204.405M.114.37a.182.182 0 0 1 .09-.025c.092 0 .165.072.165.161 0 .03-.009.059-.026.087A.146.146 0 0 0 .401.61.042.042 0 0 1 .44.576a.04.04 0 0 1 .04.041C.48.64.461.671.407.671A.183.183 0 0 1 .301.636a.175.175 0 0 1-.097.03.163.163 0 0 1-.165-.16C.039.463.056.43.071.411a.117.117 0 0 1-.02-.068c0-.035.014-.06.023-.072C0 .226 0 .158 0 .147 0 .061.105 0 .233 0s.233.062.233.147a.13.13 0 0 1-.069.114.29.29 0 0 1-.145.029h-.07C.174.29.161.29.153.292c-.015 0-.021 0-.033.014a.068.068 0 0 0-.012.036.1.1 0 0 0 .006.028M.233.06c-.1 0-.175.043-.175.087 0 .018.009.05.041.07.025.016.034.016.107.016.089 0 .202 0 .202-.086C.408.103.333.06.233.06z"/></symbol><symbol id="D"><path d="M.154.384c0 .032 0 .047-.04.047H.041C.025.431 0 .431 0 .4 0 .37.026.37.04.37h.045V.061H.041C.025.061 0 .061 0 .03 0 0 .026 0 .04 0h.159c.014 0 .04 0 .04.03 0 .031-.025.031-.041.031H.154v.177c0 .1.074.138.125.138.053 0 .067-.028.067-.088V.061H.307C.291.061.266.061.266.03.266 0 .293 0 .307 0H.46C.474 0 .5 0 .5.03.5.061.475.061.459.061H.415v.232c0 .101-.051.144-.13.144A.187.187 0 0 1 .154.384z"/></symbol><symbol id="E"><path d="M.162.575C.15.608.135.611.108.611H.04c-.015 0-.04 0-.04-.03C0 .55.024.55.04.55h.025V.061H.04c-.015 0-.04 0-.04-.03C0 0 .024 0 .04 0h.106c.015 0 .04 0 .04.03 0 .031-.024.031-.04.031H.121v.475h.001l.184-.5C.319.001.335 0 .361 0c.03 0 .042.003.042.041V.55h.025c.015 0 .04 0 .04.03 0 .031-.024.031-.04.031H.322c-.016 0-.04 0-.04-.031 0-.03.025-.03.04-.03h.025V.075H.346l-.184.5z"/></symbol><symbol id="F"><path d="M.346.038C.347.006.368.006.386.006h.073C.475.006.5.006.5.037c0 .03-.026.03-.04.03H.415v.329c0 .031-.006.041-.04.041H.302c-.016 0-.041 0-.041-.031 0-.03.026-.03.04-.03h.045V.163C.346.073.265.061.233.061.154.061.154.094.154.126v.27c0 .031-.006.041-.04.041H.041C.025.437 0 .437 0 .406c0-.03.026-.03.04-.03h.045V.12C.085.024.154 0 .227 0c.041 0 .082.01.119.038z"/></symbol><symbol id="G"><path d="M.092.239C.095.286.061.294.048.294.029.294 0 .283.003.239L.016.036C.017.021.02 0 .048 0c.025 0 .03.018.031.035l.013.204m.177 0C.272.286.238.294.225.294.206.294.177.283.18.239L.193.036C.194.021.197 0 .225 0c.025 0 .03.018.031.035l.013.204z"/></symbol><symbol id="H"><path d="M.26.222.374.37h.04C.428.37.455.37.455.4c0 .031-.026.031-.041.031H.297c-.015 0-.04 0-.04-.03C.257.37.279.37.306.37L.232.269.156.37c.026 0 .048 0 .048.031 0 .03-.025.03-.04.03H.047C.032.431.006.431.006.4c0-.03.027-.03.041-.03h.04L.205.222.081.061h-.04C.026.061 0 .061 0 .03 0 0 .027 0 .041 0h.117c.015 0 .04 0 .04.03 0 .031-.021.031-.052.031l.086.123.089-.123c-.028 0-.05 0-.05-.031 0-.03.025-.03.04-.03h.117c.014 0 .041 0 .041.03 0 .031-.026.031-.041.031h-.04L.26.222z"/></symbol><symbol id="I"><path d="M.404.598h.03c.015 0 .04 0 .04.03 0 .031-.024.031-.04.031H.317c-.015 0-.04 0-.04-.03 0-.031.024-.031.04-.031h.028L.273.385A.67.67 0 0 1 .247.299H.246C.241.318.232.339.225.358l-.093.24h.025c.015 0 .04 0 .04.03 0 .031-.024.031-.04.031H.04c-.016 0-.04 0-.04-.031 0-.03.025-.03.04-.03h.031L.213.241.217.228A.918.918 0 0 0 .179.119C.15.064.114.062.099.061c0 .001.005.009.005.022a.041.041 0 0 1-.043.043C.034.126.017.108.017.082.017.04.051 0 .1 0c.1 0 .145.132.149.143l.155.455z"/></symbol><symbol id="J"><path d="M.393.115c0 .028-.029.028-.035.028C.342.143.332.141.325.121.319.108.3.061.226.061a.159.159 0 0 0-.157.161c0 .048.028.163.163.163.021 0 .06 0 .06-.009C.293.341.312.327.336.327c.024 0 .045.017.045.046 0 .073-.104.073-.149.073A.221.221 0 0 1 0 .222.22.22 0 0 1 .22 0c.139 0 .173.098.173.115z"/></symbol><use xlink:href="#o" transform="matrix(9.9626 0 0 -9.9626 .418 123.659)"/><use xlink:href="#p" transform="matrix(9.9626 0 0 -9.9626 5.808 123.659)"/><use xlink:href="#q" transform="matrix(9.9626 0 0 -9.9626 11.029 123.719)"/><use xlink:href="#r" transform="matrix(9.9626 0 0 -9.9626 15.85 123.699)"/><use xlink:href="#s" transform="matrix(9.9626 0 0 -9.9626 22.645 124.476)"/><use xlink:href="#t" transform="matrix(9.9626 0 0 -9.9626 27.198 123.659)"/><use xlink:href="#u" transform="matrix(9.9626 0 0 -9.9626 33.175 125.044)"/><use xlink:href="#v" transform="matrix(9.9626 0 0 -9.9626 42.361 123.659)"/><use xlink:href="#w" transform="matrix(9.9626 0 0 -9.9626 47.95 124.476)"/><use xlink:href="#x" transform="matrix(9.9626 0 0 -9.9626 54.296 123.659)"/><use xlink:href="#o" transform="matrix(9.9626 0 0 -9.9626 .418 135.615)"/><use xlink:href="#p" transform="matrix(9.9626 0 0 -9.9626 5.808 135.615)"/><use xlink:href="#q" transform="matrix(9.9626 0 0 -9.9626 11.029 135.675)"/><use xlink:href="#r" transform="matrix(9.9626 0 0 -9.9626 15.85 135.655)"/><use xlink:href="#s" transform="matrix(9.9626 0 0 -9.9626 22.645 136.432)"/><use xlink:href="#v" transform="matrix(9.9626 0 0 -9.9626 26.67 135.615)"/><use xlink:href="#u" transform="matrix(9.9626 0 0 -9.9626 33.175 137)"/><use xlink:href="#y" transform="matrix(9.9626 0 0 -9.9626 42.281 135.725)"/><use xlink:href="#w" transform="matrix(9.9626 0 0 -9.9626 47.95 136.432)"/><use xlink:href="#x" transform="matrix(9.9626 0 0 -9.9626 54.296 135.615)"/><use xlink:href="#z" transform="matrix(9.9626 0 0 -9.9626 .548 147.63)"/><use xlink:href="#A" transform="matrix(9.9626 0 0 -9.9626 5.948 147.63)"/><use xlink:href="#A" transform="matrix(9.9626 0 0 -9.9626 11.178 147.63)"/><use xlink:href="#B" transform="matrix(9.9626 0 0 -9.9626 16.468 147.57)"/><use xlink:href="#C" transform="matrix(9.9626 0 0 -9.9626 21.21 149.851)"/><use xlink:href="#D" transform="matrix(9.9626 0 0 -9.9626 26.271 147.57)"/><use xlink:href="#E" transform="matrix(9.9626 0 0 -9.9626 31.661 147.57)"/><use xlink:href="#F" transform="matrix(9.9626 0 0 -9.9626 36.732 147.63)"/><use xlink:href="#p" transform="matrix(9.9626 0 0 -9.9626 42.42 147.57)"/><use xlink:href="#p" transform="matrix(9.9626 0 0 -9.9626 47.651 147.57)"/><use xlink:href="#s" transform="matrix(9.9626 0 0 -9.9626 54.027 148.387)"/><use xlink:href="#G" transform="matrix(9.9626 0 0 -9.9626 58.79 144.302)"/><use xlink:href="#H" transform="matrix(9.9626 0 0 -9.9626 63.033 147.57)"/><use xlink:href="#G" transform="matrix(9.9626 0 0 -9.9626 69.25 144.302)"/><use xlink:href="#u" transform="matrix(9.9626 0 0 -9.9626 75.018 148.955)"/><use xlink:href="#t" transform="matrix(9.9626 0 0 -9.9626 84.732 147.57)"/><use xlink:href="#w" transform="matrix(9.9626 0 0 -9.9626 89.793 148.387)"/><use xlink:href="#x" transform="matrix(9.9626 0 0 -9.9626 96.14 147.57)"/><use xlink:href="#z" transform="matrix(9.9626 0 0 -9.9626 .548 159.585)"/><use xlink:href="#A" transform="matrix(9.9626 0 0 -9.9626 5.948 159.585)"/><use xlink:href="#A" transform="matrix(9.9626 0 0 -9.9626 11.178 159.585)"/><use xlink:href="#B" transform="matrix(9.9626 0 0 -9.9626 16.468 159.525)"/><use xlink:href="#C" transform="matrix(9.9626 0 0 -9.9626 21.21 161.806)"/><use xlink:href="#D" transform="matrix(9.9626 0 0 -9.9626 26.271 159.525)"/><use xlink:href="#s" transform="matrix(9.9626 0 0 -9.9626 33.106 160.342)"/><use xlink:href="#G" transform="matrix(9.9626 0 0 -9.9626 37.868 156.257)"/><use xlink:href="#I" transform="matrix(9.9626 0 0 -9.9626 42.102 161.796)"/><use xlink:href="#G" transform="matrix(9.9626 0 0 -9.9626 48.329 156.257)"/><use xlink:href="#u" transform="matrix(9.9626 0 0 -9.9626 54.097 160.91)"/><use xlink:href="#G" transform="matrix(9.9626 0 0 -9.9626 64.02 156.257)"/><use xlink:href="#H" transform="matrix(9.9626 0 0 -9.9626 68.264 159.525)"/><use xlink:href="#G" transform="matrix(9.9626 0 0 -9.9626 74.48 156.257)"/><use xlink:href="#u" transform="matrix(9.9626 0 0 -9.9626 80.249 160.91)"/><use xlink:href="#v" transform="matrix(9.9626 0 0 -9.9626 89.434 159.525)"/><use xlink:href="#w" transform="matrix(9.9626 0 0 -9.9626 95.023 160.342)"/><use xlink:href="#x" transform="matrix(9.9626 0 0 -9.9626 101.37 159.525)"/><use xlink:href="#J" transform="matrix(9.9626 0 0 -9.9626 .727 171.54)"/><use xlink:href="#z" transform="matrix(9.9626 0 0 -9.9626 5.778 171.54)"/><use xlink:href="#p" transform="matrix(9.9626 0 0 -9.9626 11.039 171.48)"/><use xlink:href="#p" transform="matrix(9.9626 0 0 -9.9626 16.269 171.48)"/><use xlink:href="#s" transform="matrix(9.9626 0 0 -9.9626 22.645 172.297)"/><use xlink:href="#G" transform="matrix(9.9626 0 0 -9.9626 27.407 168.212)"/><use xlink:href="#I" transform="matrix(9.9626 0 0 -9.9626 31.641 173.751)"/><use xlink:href="#G" transform="matrix(9.9626 0 0 -9.9626 37.868 168.212)"/><use xlink:href="#u" transform="matrix(9.9626 0 0 -9.9626 43.636 172.865)"/><use xlink:href="#y" transform="matrix(9.9626 0 0 -9.9626 52.742 171.59)"/><use xlink:href="#w" transform="matrix(9.9626 0 0 -9.9626 58.41 172.297)"/><use xlink:href="#x" transform="matrix(9.9626 0 0 -9.9626 64.757 171.48)"/><symbol id="K"><path d="M.154.486c0 .059.058.112.121.112.074 0 .132-.073.132-.16 0-.096-.07-.161-.14-.161-.078 0-.113.088-.113.136v.073m0-.219A.157.157 0 0 1 .27.216c.109 0 .206.095.206.222 0 .123-.089.221-.195.221A.188.188 0 0 1 .154.61c0 .029-.002.043-.04.043H.041C.025.653 0 .653 0 .622c0-.03.026-.03.04-.03h.045V.061H.041C.025.061 0 .061 0 .03 0 0 .026 0 .04 0h.159c.014 0 .04 0 .04.03 0 .031-.025.031-.041.031H.154v.206z"/></symbol><symbol id="L"><path d="M.369.197c.021 0 .04 0 .04.037 0 .114-.064.212-.194.212A.219.219 0 0 1 0 .223C0 .101.101 0 .23 0c.132 0 .179.09.179.115C.409.143.38.143.374.143.356.143.348.14.341.121.319.07.265.061.237.061c-.075 0-.15.05-.166.136h.298m-.297.06C.086.33.145.385.215.385.267.385.329.36.338.257H.072z"/></symbol><symbol id="M"><path d="M.431.558c.036 0 .057 0 .057.031 0 .03-.026.03-.041.03H.345c-.015 0-.041 0-.041-.03C.304.558.325.558.36.558L.283.252C.27.199.251.123.244.08H.243a.78.78 0 0 1-.018.089L.128.558c.035 0 .056 0 .056.031 0 .03-.026.03-.041.03H.041C.026.619 0 .619 0 .589 0 .558.021.558.057.558l.132-.52C.199 0 .215 0 .244 0 .271 0 .29 0 .299.037l.132.521z"/></symbol><symbol id="N"><path d="M.146.55h.056c.014 0 .041 0 .041.03 0 .031-.026.031-.041.031H.04C.024.611 0 .611 0 .58 0 .55.025.55.04.55h.037V.061H.04C.024.061 0 .061 0 .03 0 0 .025 0 .04 0h.376c.033 0 .04.009.04.041V.13c0 .02 0 .041-.034.041C.387.171.387.151.387.13V.061H.146V.55z"/></symbol><symbol id="O"><path d="M.125.368A.063.063 0 1 1 0 .369.063.063 0 0 1 .125.368m0-.306A.063.063 0 1 1 0 .063.063.063 0 0 1 .125.062z"/></symbol><symbol id="P"><path d="M.365 0c.012 0 .047 0 .047.035S.377.07.365.07H.047C.035.07 0 .07 0 .035S.035 0 .047 0h.318z"/></symbol><symbol id="Q"><path d="M.1.565C.1.618.059.622.05.622.041.622 0 .618 0 .565 0 .531.005.376.007.331L.01.21C.011.184.037.184.05.184c.036 0 .039.008.041.048l.004.173C.096.457.1.512.1.565M.1.05A.05.05 0 0 1 .05.1.05.05 0 0 1 0 .05.05.05 0 0 1 .05 0 .05.05 0 0 1 .1.05z"/></symbol><symbol id="R"><path d="M.19.186c0 .094.059.19.18.19C.371.352.388.332.413.332c.022 0 .042.016.042.043 0 .02-.012.062-.095.062A.222.222 0 0 1 .19.356V.39C.19.421.184.431.15.431H.04c-.015 0-.04 0-.04-.03C0 .37.024.37.04.37h.081V.061H.04c-.015 0-.04 0-.04-.03C0 0 .024 0 .04 0h.261c.015 0 .041 0 .041.03 0 .031-.026.031-.041.031H.19v.125z"/></symbol><symbol id="S"><path d="M.322.056c0-.036 0-.05.04-.05h.073c.016 0 .041 0 .041.031 0 .03-.026.03-.04.03H.391v.509c0 .031-.006.041-.04.041H.278c-.016 0-.041 0-.041-.031 0-.03.026-.03.04-.03h.045V.398a.177.177 0 0 1-.117.045C.096.443 0 .348 0 .221 0 .097.09 0 .196 0c.056 0 .098.027.126.056m0 .215V.2C.322.144.277.061.2.061c-.071 0-.131.071-.131.16 0 .096.07.161.14.161A.115.115 0 0 0 .322.271z"/></symbol><symbol id="T"><path d="M.365 0c.012 0 .047 0 .047.035S.377.07.365.07H.047C.035.07 0 .07 0 .035S.035 0 .047 0h.318z"/></symbol><symbol id="U"><path d="M.154.394v.182c0 .031-.006.041-.04.041H.041C.025.617 0 .617 0 .586c0-.03.026-.03.04-.03h.045V.047c0-.02 0-.041.035-.041.034 0 .034.02.034.045A.157.157 0 0 1 .27 0c.109 0 .206.095.206.222 0 .123-.089.221-.195.221A.188.188 0 0 1 .154.394m0-.197V.27c0 .059.058.112.121.112.074 0 .132-.073.132-.16 0-.096-.07-.161-.14-.161-.078 0-.113.088-.113.136z"/></symbol><symbol id="V"><path d="M.32.618C.32.649.314.659.28.659H.122c-.016 0-.041 0-.041-.031 0-.03.025-.03.04-.03h.13V.189c0-.017 0-.055-.026-.09C.198.061.167.061.144.061.115.061.103.063.088.065l.001.012A.045.045 0 1 1 0 .076C0 0 .098 0 .139 0 .284 0 .32.12.32.184v.434m0 .172a.05.05 0 0 1-.05.05.05.05 0 0 1-.05-.05.05.05 0 0 1 .05-.05.05.05 0 0 1 .05.05z"/></symbol><use xlink:href="#D" transform="matrix(9.9626 0 0 -9.9626 140.923 6.919)"/><use xlink:href="#K" transform="matrix(9.9626 0 0 -9.9626 146.153 9.13)"/><use xlink:href="#L" transform="matrix(9.9626 0 0 -9.9626 151.812 6.979)"/><use xlink:href="#s" transform="matrix(9.9626 0 0 -9.9626 158.218 7.736)"/><use xlink:href="#M" transform="matrix(9.9626 0 0 -9.9626 161.904 6.999)"/><use xlink:href="#u" transform="matrix(9.9626 0 0 -9.9626 168.748 8.304)"/><use xlink:href="#N" transform="matrix(9.9626 0 0 -9.9626 172.504 6.919)"/><use xlink:href="#w" transform="matrix(9.9626 0 0 -9.9626 178.292 7.736)"/><use xlink:href="#O" transform="matrix(9.9626 0 0 -9.9626 184.638 6.919)"/><use xlink:href="#P" transform="matrix(9.9626 0 0 -9.9626 188.434 4.22)"/><use xlink:href="#J" transform="matrix(9.9626 0 0 -9.9626 162.452 18.934)"/><use xlink:href="#z" transform="matrix(9.9626 0 0 -9.9626 167.503 18.934)"/><use xlink:href="#p" transform="matrix(9.9626 0 0 -9.9626 172.764 18.874)"/><use xlink:href="#p" transform="matrix(9.9626 0 0 -9.9626 177.994 18.874)"/><use xlink:href="#s" transform="matrix(9.9626 0 0 -9.9626 184.37 19.69)"/><use xlink:href="#M" transform="matrix(9.9626 0 0 -9.9626 188.056 18.954)"/><use xlink:href="#u" transform="matrix(9.9626 0 0 -9.9626 194.9 20.259)"/><use xlink:href="#N" transform="matrix(9.9626 0 0 -9.9626 198.656 18.874)"/><use xlink:href="#w" transform="matrix(9.9626 0 0 -9.9626 204.445 19.69)"/><use xlink:href="#u" transform="matrix(9.9626 0 0 -9.9626 210.592 20.259)"/><use xlink:href="#D" transform="matrix(9.9626 0 0 -9.9626 161.845 30.829)"/><use xlink:href="#F" transform="matrix(9.9626 0 0 -9.9626 167.075 30.889)"/><use xlink:href="#p" transform="matrix(9.9626 0 0 -9.9626 172.764 30.829)"/><use xlink:href="#p" transform="matrix(9.9626 0 0 -9.9626 177.994 30.829)"/><use xlink:href="#s" transform="matrix(9.9626 0 0 -9.9626 184.37 31.646)"/><use xlink:href="#M" transform="matrix(9.9626 0 0 -9.9626 188.056 30.909)"/><use xlink:href="#u" transform="matrix(9.9626 0 0 -9.9626 194.9 32.214)"/><use xlink:href="#N" transform="matrix(9.9626 0 0 -9.9626 198.656 30.829)"/><use xlink:href="#w" transform="matrix(9.9626 0 0 -9.9626 204.445 31.646)"/><use xlink:href="#u" transform="matrix(9.9626 0 0 -9.9626 210.592 32.214)"/><use xlink:href="#Q" transform="matrix(9.9626 0 0 -9.9626 163.837 42.784)"/><use xlink:href="#C" transform="matrix(9.9626 0 0 -9.9626 167.244 45.065)"/><use xlink:href="#F" transform="matrix(9.9626 0 0 -9.9626 172.305 42.844)"/><use xlink:href="#z" transform="matrix(9.9626 0 0 -9.9626 177.964 42.844)"/><use xlink:href="#R" transform="matrix(9.9626 0 0 -9.9626 182.965 42.784)"/><use xlink:href="#S" transform="matrix(9.9626 0 0 -9.9626 188.235 42.844)"/><use xlink:href="#s" transform="matrix(9.9626 0 0 -9.9626 194.83 43.6)"/><use xlink:href="#M" transform="matrix(9.9626 0 0 -9.9626 198.517 42.864)"/><use xlink:href="#u" transform="matrix(9.9626 0 0 -9.9626 205.361 44.169)"/><use xlink:href="#N" transform="matrix(9.9626 0 0 -9.9626 209.117 42.784)"/><use xlink:href="#w" transform="matrix(9.9626 0 0 -9.9626 214.905 43.6)"/><use xlink:href="#x" transform="matrix(9.9626 0 0 -9.9626 221.251 42.784)"/><use xlink:href="#D" transform="matrix(9.9626 0 0 -9.9626 140.923 54.74)"/><use xlink:href="#F" transform="matrix(9.9626 0 0 -9.9626 146.153 54.8)"/><use xlink:href="#p" transform="matrix(9.9626 0 0 -9.9626 151.842 54.74)"/><use xlink:href="#p" transform="matrix(9.9626 0 0 -9.9626 157.072 54.74)"/><use xlink:href="#s" transform="matrix(9.9626 0 0 -9.9626 163.448 55.557)"/><use xlink:href="#M" transform="matrix(9.9626 0 0 -9.9626 167.134 54.82)"/><use xlink:href="#u" transform="matrix(9.9626 0 0 -9.9626 173.978 56.125)"/><use xlink:href="#N" transform="matrix(9.9626 0 0 -9.9626 177.734 54.74)"/><use xlink:href="#w" transform="matrix(9.9626 0 0 -9.9626 183.523 55.557)"/><use xlink:href="#O" transform="matrix(9.9626 0 0 -9.9626 189.869 54.74)"/><use xlink:href="#P" transform="matrix(9.9626 0 0 -9.9626 193.665 52.04)"/><use xlink:href="#o" transform="matrix(9.9626 0 0 -9.9626 162.143 66.695)"/><use xlink:href="#p" transform="matrix(9.9626 0 0 -9.9626 167.533 66.695)"/><use xlink:href="#q" transform="matrix(9.9626 0 0 -9.9626 172.754 66.755)"/><use xlink:href="#r" transform="matrix(9.9626 0 0 -9.9626 177.575 66.735)"/><use xlink:href="#s" transform="matrix(9.9626 0 0 -9.9626 184.37 67.512)"/><use xlink:href="#N" transform="matrix(9.9626 0 0 -9.9626 188.196 66.695)"/><use xlink:href="#t" transform="matrix(9.9626 0 0 -9.9626 194.153 66.695)"/><use xlink:href="#u" transform="matrix(9.9626 0 0 -9.9626 200.13 68.08)"/><use xlink:href="#N" transform="matrix(9.9626 0 0 -9.9626 203.887 66.695)"/><use xlink:href="#w" transform="matrix(9.9626 0 0 -9.9626 209.675 67.512)"/><use xlink:href="#u" transform="matrix(9.9626 0 0 -9.9626 215.822 68.08)"/><use xlink:href="#z" transform="matrix(9.9626 0 0 -9.9626 162.273 78.71)"/><use xlink:href="#A" transform="matrix(9.9626 0 0 -9.9626 167.673 78.71)"/><use xlink:href="#A" transform="matrix(9.9626 0 0 -9.9626 172.903 78.71)"/><use xlink:href="#B" transform="matrix(9.9626 0 0 -9.9626 178.193 78.65)"/><use xlink:href="#C" transform="matrix(9.9626 0 0 -9.9626 182.935 80.931)"/><use xlink:href="#D" transform="matrix(9.9626 0 0 -9.9626 187.996 78.65)"/><use xlink:href="#E" transform="matrix(9.9626 0 0 -9.9626 193.386 78.65)"/><use xlink:href="#F" transform="matrix(9.9626 0 0 -9.9626 198.457 78.71)"/><use xlink:href="#p" transform="matrix(9.9626 0 0 -9.9626 204.146 78.65)"/><use xlink:href="#p" transform="matrix(9.9626 0 0 -9.9626 209.376 78.65)"/><use xlink:href="#s" transform="matrix(9.9626 0 0 -9.9626 215.752 79.467)"/><use xlink:href="#M" transform="matrix(9.9626 0 0 -9.9626 219.438 78.73)"/><use xlink:href="#u" transform="matrix(9.9626 0 0 -9.9626 226.283 80.035)"/><use xlink:href="#N" transform="matrix(9.9626 0 0 -9.9626 230.038 78.65)"/><use xlink:href="#t" transform="matrix(9.9626 0 0 -9.9626 235.996 78.65)"/><use xlink:href="#w" transform="matrix(9.9626 0 0 -9.9626 241.057 79.467)"/><use xlink:href="#x" transform="matrix(9.9626 0 0 -9.9626 247.403 78.65)"/><use xlink:href="#D" transform="matrix(9.9626 0 0 -9.9626 140.923 90.605)"/><use xlink:href="#F" transform="matrix(9.9626 0 0 -9.9626 146.153 90.665)"/><use xlink:href="#p" transform="matrix(9.9626 0 0 -9.9626 151.842 90.605)"/><use xlink:href="#p" transform="matrix(9.9626 0 0 -9.9626 157.072 90.605)"/><use xlink:href="#s" transform="matrix(9.9626 0 0 -9.9626 163.448 91.422)"/><use xlink:href="#M" transform="matrix(9.9626 0 0 -9.9626 167.134 90.685)"/><use xlink:href="#u" transform="matrix(9.9626 0 0 -9.9626 173.978 91.99)"/><use xlink:href="#N" transform="matrix(9.9626 0 0 -9.9626 177.734 90.605)"/><use xlink:href="#w" transform="matrix(9.9626 0 0 -9.9626 183.523 91.422)"/><use xlink:href="#O" transform="matrix(9.9626 0 0 -9.9626 189.869 90.605)"/><use xlink:href="#P" transform="matrix(9.9626 0 0 -9.9626 193.665 87.905)"/><use xlink:href="#o" transform="matrix(9.9626 0 0 -9.9626 162.143 102.56)"/><use xlink:href="#p" transform="matrix(9.9626 0 0 -9.9626 167.533 102.56)"/><use xlink:href="#q" transform="matrix(9.9626 0 0 -9.9626 172.754 102.62)"/><use xlink:href="#r" transform="matrix(9.9626 0 0 -9.9626 177.575 102.6)"/><use xlink:href="#s" transform="matrix(9.9626 0 0 -9.9626 184.37 103.377)"/><use xlink:href="#N" transform="matrix(9.9626 0 0 -9.9626 188.196 102.56)"/><use xlink:href="#t" transform="matrix(9.9626 0 0 -9.9626 194.153 102.56)"/><use xlink:href="#u" transform="matrix(9.9626 0 0 -9.9626 200.13 103.945)"/><use xlink:href="#N" transform="matrix(9.9626 0 0 -9.9626 203.887 102.56)"/><use xlink:href="#w" transform="matrix(9.9626 0 0 -9.9626 209.675 103.377)"/><use xlink:href="#u" transform="matrix(9.9626 0 0 -9.9626 215.822 103.945)"/><use xlink:href="#D" transform="matrix(9.9626 0 0 -9.9626 161.845 114.515)"/><use xlink:href="#F" transform="matrix(9.9626 0 0 -9.9626 167.075 114.575)"/><use xlink:href="#p" transform="matrix(9.9626 0 0 -9.9626 172.764 114.515)"/><use xlink:href="#p" transform="matrix(9.9626 0 0 -9.9626 177.994 114.515)"/><use xlink:href="#s" transform="matrix(9.9626 0 0 -9.9626 184.37 115.332)"/><use xlink:href="#M" transform="matrix(9.9626 0 0 -9.9626 188.056 114.595)"/><use xlink:href="#u" transform="matrix(9.9626 0 0 -9.9626 194.9 115.9)"/><use xlink:href="#N" transform="matrix(9.9626 0 0 -9.9626 198.656 114.515)"/><use xlink:href="#t" transform="matrix(9.9626 0 0 -9.9626 204.614 114.515)"/><use xlink:href="#w" transform="matrix(9.9626 0 0 -9.9626 209.675 115.332)"/><use xlink:href="#u" transform="matrix(9.9626 0 0 -9.9626 215.822 115.9)"/><use xlink:href="#Q" transform="matrix(9.9626 0 0 -9.9626 163.837 126.471)"/><use xlink:href="#z" transform="matrix(9.9626 0 0 -9.9626 167.503 126.53)"/><use xlink:href="#A" transform="matrix(9.9626 0 0 -9.9626 172.903 126.53)"/><use xlink:href="#A" transform="matrix(9.9626 0 0 -9.9626 178.133 126.53)"/><use xlink:href="#B" transform="matrix(9.9626 0 0 -9.9626 183.424 126.471)"/><use xlink:href="#C" transform="matrix(9.9626 0 0 -9.9626 188.166 128.752)"/><use xlink:href="#D" transform="matrix(9.9626 0 0 -9.9626 193.227 126.471)"/><use xlink:href="#s" transform="matrix(9.9626 0 0 -9.9626 200.061 127.288)"/><use xlink:href="#M" transform="matrix(9.9626 0 0 -9.9626 203.747 126.55)"/><use xlink:href="#u" transform="matrix(9.9626 0 0 -9.9626 210.592 127.856)"/><use xlink:href="#T" transform="matrix(9.9626 0 0 -9.9626 214.587 127.417)"/><use xlink:href="#u" transform="matrix(9.9626 0 0 -9.9626 221.052 127.856)"/><use xlink:href="#N" transform="matrix(9.9626 0 0 -9.9626 224.808 126.471)"/><use xlink:href="#t" transform="matrix(9.9626 0 0 -9.9626 230.766 126.471)"/><use xlink:href="#w" transform="matrix(9.9626 0 0 -9.9626 235.827 127.288)"/><use xlink:href="#u" transform="matrix(9.9626 0 0 -9.9626 241.974 127.856)"/><use xlink:href="#Q" transform="matrix(9.9626 0 0 -9.9626 163.837 138.426)"/><use xlink:href="#z" transform="matrix(9.9626 0 0 -9.9626 167.503 138.486)"/><use xlink:href="#A" transform="matrix(9.9626 0 0 -9.9626 172.903 138.486)"/><use xlink:href="#A" transform="matrix(9.9626 0 0 -9.9626 178.133 138.486)"/><use xlink:href="#B" transform="matrix(9.9626 0 0 -9.9626 183.424 138.426)"/><use xlink:href="#C" transform="matrix(9.9626 0 0 -9.9626 188.166 140.707)"/><use xlink:href="#D" transform="matrix(9.9626 0 0 -9.9626 193.227 138.426)"/><use xlink:href="#T" transform="matrix(9.9626 0 0 -9.9626 198.895 139.372)"/><use xlink:href="#q" transform="matrix(9.9626 0 0 -9.9626 204.136 138.486)"/><use xlink:href="#U" transform="matrix(9.9626 0 0 -9.9626 208.918 138.486)"/><use xlink:href="#V" transform="matrix(9.9626 0 0 -9.9626 214.507 140.697)"/><use xlink:href="#s" transform="matrix(9.9626 0 0 -9.9626 220.982 139.243)"/><use xlink:href="#M" transform="matrix(9.9626 0 0 -9.9626 224.669 138.506)"/><use xlink:href="#u" transform="matrix(9.9626 0 0 -9.9626 231.513 139.81)"/><use xlink:href="#N" transform="matrix(9.9626 0 0 -9.9626 235.269 138.426)"/><use xlink:href="#t" transform="matrix(9.9626 0 0 -9.9626 241.226 138.426)"/><use xlink:href="#w" transform="matrix(9.9626 0 0 -9.9626 246.287 139.243)"/><use xlink:href="#x" transform="matrix(9.9626 0 0 -9.9626 252.634 138.426)"/><use xlink:href="#D" transform="matrix(9.9626 0 0 -9.9626 140.923 150.381)"/><use xlink:href="#F" transform="matrix(9.9626 0 0 -9.9626 146.153 150.44)"/><use xlink:href="#p" transform="matrix(9.9626 0 0 -9.9626 151.842 150.381)"/><use xlink:href="#p" transform="matrix(9.9626 0 0 -9.9626 157.072 150.381)"/><use xlink:href="#s" transform="matrix(9.9626 0 0 -9.9626 163.448 151.198)"/><use xlink:href="#M" transform="matrix(9.9626 0 0 -9.9626 167.134 150.46)"/><use xlink:href="#u" transform="matrix(9.9626 0 0 -9.9626 173.978 151.766)"/><use xlink:href="#N" transform="matrix(9.9626 0 0 -9.9626 177.734 150.381)"/><use xlink:href="#w" transform="matrix(9.9626 0 0 -9.9626 183.523 151.198)"/><use xlink:href="#O" transform="matrix(9.9626 0 0 -9.9626 189.869 150.381)"/><use xlink:href="#P" transform="matrix(9.9626 0 0 -9.9626 193.665 147.681)"/><use xlink:href="#o" transform="matrix(9.9626 0 0 -9.9626 162.143 162.336)"/><use xlink:href="#p" transform="matrix(9.9626 0 0 -9.9626 167.533 162.336)"/><use xlink:href="#q" transform="matrix(9.9626 0 0 -9.9626 172.754 162.396)"/><use xlink:href="#r" transform="matrix(9.9626 0 0 -9.9626 177.575 162.376)"/><use xlink:href="#s" transform="matrix(9.9626 0 0 -9.9626 184.37 163.153)"/><use xlink:href="#N" transform="matrix(9.9626 0 0 -9.9626 188.196 162.336)"/><use xlink:href="#t" transform="matrix(9.9626 0 0 -9.9626 194.153 162.336)"/><use xlink:href="#u" transform="matrix(9.9626 0 0 -9.9626 200.13 163.72)"/><use xlink:href="#N" transform="matrix(9.9626 0 0 -9.9626 203.887 162.336)"/><use xlink:href="#w" transform="matrix(9.9626 0 0 -9.9626 209.675 163.153)"/><use xlink:href="#u" transform="matrix(9.9626 0 0 -9.9626 215.822 163.72)"/><use xlink:href="#z" transform="matrix(9.9626 0 0 -9.9626 162.273 174.35)"/><use xlink:href="#A" transform="matrix(9.9626 0 0 -9.9626 167.673 174.35)"/><use xlink:href="#A" transform="matrix(9.9626 0 0 -9.9626 172.903 174.35)"/><use xlink:href="#B" transform="matrix(9.9626 0 0 -9.9626 178.193 174.291)"/><use xlink:href="#C" transform="matrix(9.9626 0 0 -9.9626 182.935 176.572)"/><use xlink:href="#D" transform="matrix(9.9626 0 0 -9.9626 187.996 174.291)"/><use xlink:href="#s" transform="matrix(9.9626 0 0 -9.9626 194.83 175.108)"/><use xlink:href="#M" transform="matrix(9.9626 0 0 -9.9626 198.517 174.37)"/><use xlink:href="#u" transform="matrix(9.9626 0 0 -9.9626 205.361 175.676)"/><use xlink:href="#M" transform="matrix(9.9626 0 0 -9.9626 208.978 174.37)"/><use xlink:href="#t" transform="matrix(9.9626 0 0 -9.9626 215.075 174.291)"/><use xlink:href="#u" transform="matrix(9.9626 0 0 -9.9626 221.052 175.676)"/><use xlink:href="#N" transform="matrix(9.9626 0 0 -9.9626 224.808 174.291)"/><use xlink:href="#t" transform="matrix(9.9626 0 0 -9.9626 230.766 174.291)"/><use xlink:href="#w" transform="matrix(9.9626 0 0 -9.9626 235.827 175.108)"/><use xlink:href="#u" transform="matrix(9.9626 0 0 -9.9626 241.974 175.676)"/><use xlink:href="#D" transform="matrix(9.9626 0 0 -9.9626 161.845 186.246)"/><use xlink:href="#F" transform="matrix(9.9626 0 0 -9.9626 167.075 186.306)"/><use xlink:href="#p" transform="matrix(9.9626 0 0 -9.9626 172.764 186.246)"/><use xlink:href="#p" transform="matrix(9.9626 0 0 -9.9626 177.994 186.246)"/><use xlink:href="#s" transform="matrix(9.9626 0 0 -9.9626 184.37 187.063)"/><use xlink:href="#M" transform="matrix(9.9626 0 0 -9.9626 188.056 186.326)"/><use xlink:href="#t" transform="matrix(9.9626 0 0 -9.9626 194.153 186.246)"/><use xlink:href="#u" transform="matrix(9.9626 0 0 -9.9626 200.13 187.63)"/><use xlink:href="#N" transform="matrix(9.9626 0 0 -9.9626 203.887 186.246)"/><use xlink:href="#t" transform="matrix(9.9626 0 0 -9.9626 209.844 186.246)"/><use xlink:href="#w" transform="matrix(9.9626 0 0 -9.9626 214.905 187.063)"/><use xlink:href="#x" transform="matrix(9.9626 0 0 -9.9626 221.251 186.246)"/><path stroke-width=".399" stroke-miterlimit="10" fill="none" stroke="#000" d="M304.913 22.714h42.618V9.154h-42.618z"/><use xlink:href="#a" transform="matrix(9.9626 0 0 -9.9626 308.354 19.393)"/><use xlink:href="#b" transform="matrix(9.9626 0 0 -9.9626 317.37 18.068)"/><use xlink:href="#c" transform="matrix(9.9626 0 0 -9.9626 328.209 19.393)"/><use xlink:href="#d" transform="matrix(9.9626 0 0 -9.9626 333.47 19.503)"/><use xlink:href="#e" transform="matrix(9.9626 0 0 -9.9626 339.018 19.393)"/><use xlink:href="#e" transform="matrix(9.9626 0 0 -9.9626 341.788 19.393)"/><use xlink:href="#f" transform="matrix(9.9626 0 0 -9.9626 352.137 18.895)"/><path stroke-width=".399" stroke-miterlimit="10" fill="none" stroke="#000" d="M310.448 53.55h31.548V40.682h-31.548z"/><use xlink:href="#g" transform="matrix(9.9626 0 0 -9.9626 313.958 50.333)"/><use xlink:href="#b" transform="matrix(9.9626 0 0 -9.9626 322.905 46.966)"/><use xlink:href="#a" transform="matrix(9.9626 0 0 -9.9626 333.545 48.291)"/><use xlink:href="#h" transform="matrix(9.9626 0 0 -9.9626 346.213 50.422)"/><path stroke-width=".399" stroke-miterlimit="10" fill="none" stroke="#000" d="M281.805 86.6h88.834V69.994h-88.834z"/><symbol id="W"><path d="M.144.442.004.431V.4C.069.4.078.394.078.345V.076C.078.031.067.031 0 .031V0l.11.003C.145.003.18.001.214 0v.031c-.066 0-.07.005-.07.044v.367m.004.174a.052.052 0 0 1-.053.053.054.054 0 0 1-.053-.053c0-.027.022-.053.053-.053.028 0 .053.021.053.053z"/></symbol><symbol id="X"><path d="M.142.431v.116c0 .088.048.136.092.136.003 0 .018 0 .033-.007a.044.044 0 0 1-.03-.042C.237.611.253.591.28.591c.029 0 .044.02.044.044 0 .037-.037.07-.09.07A.155.155 0 0 1 .079.546V.431H0V.4h.079V.076C.079.031.068.031.001.031V0l.114.003c.04 0 .087 0 .127-.003v.031H.221C.147.031.145.042.145.078V.4h.114v.031H.142z"/></symbol><symbol id="Y"><path d="m.067.209.039.456c0 .033-.027.051-.053.051S0 .698 0 .665L.039.21C.04.195.041.187.053.187c.01 0 .013.005.014.022M.106.053a.053.053 0 0 1-.053.053A.053.053 0 0 1 0 .053C0 .024.024 0 .053 0c.029 0 .053.024.053.053z"/></symbol><use xlink:href="#W" transform="matrix(9.9626 0 0 -9.9626 285.455 80.787)" fill="#006400"/><use xlink:href="#X" transform="matrix(9.9626 0 0 -9.9626 288.224 80.787)" fill="#006400"/><use xlink:href="#l" transform="matrix(9.9626 0 0 -9.9626 295.248 83.278)" fill="#006400"/><use xlink:href="#g" transform="matrix(9.9626 0 0 -9.9626 298.326 82.83)" fill="#006400"/><use xlink:href="#Y" transform="matrix(9.9626 0 0 -9.9626 304.254 80.787)" fill="#006400"/><use xlink:href="#b" transform="matrix(9.9626 0 0 -9.9626 306.725 79.462)" fill="#006400"/><use xlink:href="#c" transform="matrix(9.9626 0 0 -9.9626 314.237 80.787)" fill="#006400"/><use xlink:href="#d" transform="matrix(9.9626 0 0 -9.9626 319.497 80.897)" fill="#006400"/><use xlink:href="#e" transform="matrix(9.9626 0 0 -9.9626 325.046 80.787)" fill="#006400"/><use xlink:href="#e" transform="matrix(9.9626 0 0 -9.9626 327.816 80.787)" fill="#006400"/><use xlink:href="#m" transform="matrix(9.9626 0 0 -9.9626 330.824 83.278)" fill="#006400"/><use xlink:href="#g" transform="matrix(9.9626 0 0 -9.9626 337.649 82.83)"/><use xlink:href="#i" transform="matrix(9.9626 0 0 -9.9626 342.74 80.787)"/><use xlink:href="#j" transform="matrix(9.9626 0 0 -9.9626 344.991 80.897)"/><use xlink:href="#k" transform="matrix(9.9626 0 0 -9.9626 349.494 80.897)"/><use xlink:href="#e" transform="matrix(9.9626 0 0 -9.9626 354.386 80.787)"/><use xlink:href="#e" transform="matrix(9.9626 0 0 -9.9626 357.156 80.787)"/><use xlink:href="#l" transform="matrix(9.9626 0 0 -9.9626 360.583 83.278)"/><use xlink:href="#m" transform="matrix(9.9626 0 0 -9.9626 364.04 83.278)"/><use xlink:href="#n" transform="matrix(9.9626 0 0 -9.9626 374.776 79.955)"/><path stroke-width=".399" stroke-miterlimit="10" fill="none" stroke="#000" d="M326.222 22.913v17.171"/><path stroke-width=".399" stroke-linecap="round" stroke-linejoin="round" fill="none" stroke="#000" d="M328.613 38.211c-1.435.379-2.112 1.222-2.391 2.072-.279-.85-.956-1.693-2.391-2.072"/><path stroke-width=".399" stroke-miterlimit="10" fill="none" stroke="#000" d="M326.222 53.749v15.649"/><path stroke-width=".399" stroke-linecap="round" stroke-linejoin="round" fill="none" stroke="#000" d="M328.613 67.525c-1.435.378-2.112 1.222-2.391 2.072-.279-.85-.956-1.694-2.391-2.072"/><use xlink:href="#o" transform="matrix(9.9626 0 0 -9.9626 282.024 116.686)"/><use xlink:href="#p" transform="matrix(9.9626 0 0 -9.9626 287.414 116.686)"/><use xlink:href="#q" transform="matrix(9.9626 0 0 -9.9626 292.635 116.746)"/><use xlink:href="#r" transform="matrix(9.9626 0 0 -9.9626 297.457 116.726)"/><use xlink:href="#s" transform="matrix(9.9626 0 0 -9.9626 304.251 117.503)"/><use xlink:href="#t" transform="matrix(9.9626 0 0 -9.9626 308.804 116.686)"/><use xlink:href="#u" transform="matrix(9.9626 0 0 -9.9626 314.782 118.07)"/><use xlink:href="#v" transform="matrix(9.9626 0 0 -9.9626 323.967 116.686)"/><use xlink:href="#w" transform="matrix(9.9626 0 0 -9.9626 329.556 117.503)"/><use xlink:href="#x" transform="matrix(9.9626 0 0 -9.9626 335.902 116.686)"/><use xlink:href="#o" transform="matrix(9.9626 0 0 -9.9626 282.024 128.641)"/><use xlink:href="#p" transform="matrix(9.9626 0 0 -9.9626 287.414 128.641)"/><use xlink:href="#q" transform="matrix(9.9626 0 0 -9.9626 292.635 128.7)"/><use xlink:href="#r" transform="matrix(9.9626 0 0 -9.9626 297.457 128.68)"/><use xlink:href="#s" transform="matrix(9.9626 0 0 -9.9626 304.251 129.458)"/><use xlink:href="#v" transform="matrix(9.9626 0 0 -9.9626 308.276 128.641)"/><use xlink:href="#u" transform="matrix(9.9626 0 0 -9.9626 314.782 130.026)"/><use xlink:href="#y" transform="matrix(9.9626 0 0 -9.9626 323.887 128.75)"/><use xlink:href="#w" transform="matrix(9.9626 0 0 -9.9626 329.556 129.458)"/><use xlink:href="#x" transform="matrix(9.9626 0 0 -9.9626 335.902 128.641)"/><use xlink:href="#z" transform="matrix(9.9626 0 0 -9.9626 282.154 140.656)"/><use xlink:href="#A" transform="matrix(9.9626 0 0 -9.9626 287.554 140.656)"/><use xlink:href="#A" transform="matrix(9.9626 0 0 -9.9626 292.784 140.656)"/><use xlink:href="#B" transform="matrix(9.9626 0 0 -9.9626 298.074 140.596)"/><use xlink:href="#C" transform="matrix(9.9626 0 0 -9.9626 302.816 142.877)"/><use xlink:href="#D" transform="matrix(9.9626 0 0 -9.9626 307.877 140.596)"/><use xlink:href="#E" transform="matrix(9.9626 0 0 -9.9626 313.267 140.596)"/><use xlink:href="#F" transform="matrix(9.9626 0 0 -9.9626 318.338 140.656)"/><use xlink:href="#p" transform="matrix(9.9626 0 0 -9.9626 324.027 140.596)"/><use xlink:href="#p" transform="matrix(9.9626 0 0 -9.9626 329.257 140.596)"/><use xlink:href="#s" transform="matrix(9.9626 0 0 -9.9626 335.633 141.413)"/><use xlink:href="#G" transform="matrix(9.9626 0 0 -9.9626 340.395 137.328)"/><use xlink:href="#H" transform="matrix(9.9626 0 0 -9.9626 344.64 140.596)"/><use xlink:href="#G" transform="matrix(9.9626 0 0 -9.9626 350.856 137.328)"/><use xlink:href="#u" transform="matrix(9.9626 0 0 -9.9626 356.625 141.98)"/><use xlink:href="#t" transform="matrix(9.9626 0 0 -9.9626 366.338 140.596)"/><use xlink:href="#w" transform="matrix(9.9626 0 0 -9.9626 371.4 141.413)"/><use xlink:href="#x" transform="matrix(9.9626 0 0 -9.9626 377.745 140.596)"/><use xlink:href="#z" transform="matrix(9.9626 0 0 -9.9626 282.154 152.61)"/><use xlink:href="#A" transform="matrix(9.9626 0 0 -9.9626 287.554 152.61)"/><use xlink:href="#A" transform="matrix(9.9626 0 0 -9.9626 292.784 152.61)"/><use xlink:href="#B" transform="matrix(9.9626 0 0 -9.9626 298.074 152.551)"/><use xlink:href="#C" transform="matrix(9.9626 0 0 -9.9626 302.816 154.832)"/><use xlink:href="#D" transform="matrix(9.9626 0 0 -9.9626 307.877 152.551)"/><use xlink:href="#s" transform="matrix(9.9626 0 0 -9.9626 314.712 153.368)"/><use xlink:href="#G" transform="matrix(9.9626 0 0 -9.9626 319.474 149.283)"/><use xlink:href="#I" transform="matrix(9.9626 0 0 -9.9626 323.708 154.822)"/><use xlink:href="#G" transform="matrix(9.9626 0 0 -9.9626 329.935 149.283)"/><use xlink:href="#u" transform="matrix(9.9626 0 0 -9.9626 335.703 153.936)"/><use xlink:href="#G" transform="matrix(9.9626 0 0 -9.9626 345.626 149.283)"/><use xlink:href="#H" transform="matrix(9.9626 0 0 -9.9626 349.87 152.551)"/><use xlink:href="#G" transform="matrix(9.9626 0 0 -9.9626 356.087 149.283)"/><use xlink:href="#u" transform="matrix(9.9626 0 0 -9.9626 361.855 153.936)"/><use xlink:href="#v" transform="matrix(9.9626 0 0 -9.9626 371.04 152.551)"/><use xlink:href="#w" transform="matrix(9.9626 0 0 -9.9626 376.63 153.368)"/><use xlink:href="#x" transform="matrix(9.9626 0 0 -9.9626 382.976 152.551)"/><symbol id="Z"><path d="M.259.19h.142c.012 0 .047 0 .047.035S.413.26.401.26H.259v.143c0 .012 0 .047-.035.047S.189.415.189.403V.26H.047C.035.26 0 .26 0 .225S.035.19.047.19h.142V.047C.189.035.189 0 .224 0s.035.035.035.047V.19z"/></symbol><use xlink:href="#Z" transform="matrix(9.9626 0 0 -9.9626 281.985 163.699)" fill="#006400"/><use xlink:href="#C" transform="matrix(9.9626 0 0 -9.9626 292.356 166.787)" fill="#006400"/><use xlink:href="#F" transform="matrix(9.9626 0 0 -9.9626 297.417 164.566)" fill="#006400"/><use xlink:href="#z" transform="matrix(9.9626 0 0 -9.9626 303.075 164.566)" fill="#006400"/><use xlink:href="#R" transform="matrix(9.9626 0 0 -9.9626 308.077 164.506)" fill="#006400"/><use xlink:href="#S" transform="matrix(9.9626 0 0 -9.9626 313.347 164.566)" fill="#006400"/><use xlink:href="#s" transform="matrix(9.9626 0 0 -9.9626 319.942 165.323)" fill="#006400"/><use xlink:href="#G" transform="matrix(9.9626 0 0 -9.9626 324.704 161.238)" fill="#006400"/><use xlink:href="#I" transform="matrix(9.9626 0 0 -9.9626 328.938 166.777)" fill="#006400"/><use xlink:href="#G" transform="matrix(9.9626 0 0 -9.9626 335.165 161.238)" fill="#006400"/><use xlink:href="#u" transform="matrix(9.9626 0 0 -9.9626 340.933 165.89)" fill="#006400"/><use xlink:href="#y" transform="matrix(9.9626 0 0 -9.9626 350.04 164.616)" fill="#006400"/><use xlink:href="#w" transform="matrix(9.9626 0 0 -9.9626 355.708 165.323)" fill="#006400"/><use xlink:href="#J" transform="matrix(9.9626 0 0 -9.9626 282.333 176.52)"/><use xlink:href="#z" transform="matrix(9.9626 0 0 -9.9626 287.384 176.52)"/><use xlink:href="#p" transform="matrix(9.9626 0 0 -9.9626 292.645 176.461)"/><use xlink:href="#p" transform="matrix(9.9626 0 0 -9.9626 297.875 176.461)"/><use xlink:href="#s" transform="matrix(9.9626 0 0 -9.9626 304.251 177.278)"/><use xlink:href="#G" transform="matrix(9.9626 0 0 -9.9626 309.013 173.193)"/><use xlink:href="#I" transform="matrix(9.9626 0 0 -9.9626 313.247 178.732)"/><use xlink:href="#G" transform="matrix(9.9626 0 0 -9.9626 319.474 173.193)"/><use xlink:href="#u" transform="matrix(9.9626 0 0 -9.9626 325.242 177.846)"/><use xlink:href="#y" transform="matrix(9.9626 0 0 -9.9626 334.348 176.57)"/><use xlink:href="#w" transform="matrix(9.9626 0 0 -9.9626 340.017 177.278)"/><use xlink:href="#x" transform="matrix(9.9626 0 0 -9.9626 346.363 176.461)"/></svg>