<svg xmlns="http://www.w3.org/2000/svg" xmlns:xlink="http://www.w3.org/1999/xlink" width="394.527" height="162.945" viewBox="0 0 295.895 122.209"><symbol id="a"><path d="M.078.344V.076C.078.031.067.031 0 .031V0l.113.003L.225 0v.031c-.067 0-.078 0-.078.045V.26c0 .104.071.16.135.16C.345.42.356.366.356.309V.076C.356.031.345.031.278.031V0l.113.003L.503 0v.031c-.052 0-.077 0-.078.03v.191c0 .086 0 .117-.031.153C.38.422.347.442.289.442.216.442.169.399.141.337v.105L0 .431V.4C.07.4.078.393.078.344z"/></symbol><symbol id="b"><path d="M.144.57v.066L0 .625V.594c.071 0 .078-.006.078-.05V.076C.078.031.067.031 0 .031V0l.112.003L.225 0v.031c-.067 0-.078 0-.078.045V.253C.152.237.194.183.27.183c.119 0 .223.098.223.227 0 .127-.097.226-.209.226A.18.18 0 0 1 .144.57M.147.308v.223a.15.15 0 0 0 .129.08C.349.611.41.523.41.41.41.289.34.205.266.205c-.04 0-.078.02-.105.061C.147.287.147.288.147.308z"/></symbol><symbol id="c"><path d="M.084.263c.006.149.09.174.124.174.103 0 .113-.135.113-.174H.084M.083.242h.279c.022 0 .025 0 .025.021 0 .099-.054.196-.179.196C.092.459 0 .356 0 .231 0 .097.105 0 .22 0a.17.17 0 0 1 .167.13c0 .01-.008.012-.013.012C.365.142.363.136.361.128.326.025.236.025.226.025c-.05 0-.09.03-.113.067-.03.048-.03.114-.03.15z"/></symbol><symbol id="d"><path d="M.232.01c0 .003 0 .005-.017.022C.09.158.058.347.058.5c0 .174.038.348.161.473.013.012.013.014.013.017 0 .007-.004.01-.01.01-.01 0-.1-.068-.159-.195A.727.727 0 0 1 0 .5C0 .422.011.301.066.188A.432.432 0 0 1 .222 0c.006 0 .01.003.01.01z"/></symbol><symbol id="e"><path d="M.396.541a.094.094 0 0 0 .093.064v.031a.94.94 0 0 0-.162 0V.605C.358.604.374.587.374.562.374.552.373.55.368.538L.267.292.156.561C.152.571.15.575.15.579c0 .026.037.026.056.026v.031a1.646 1.646 0 0 0-.206 0V.605c.048 0 .067 0 .081-.035l.15-.365A1.487 1.487 0 0 0 .206.146C.184.091.156.022.092.022c-.005 0-.028 0-.047.018.031.004.039.026.039.042a.04.04 0 0 1-.042.042C.022.124 0 .111 0 .081 0 .036.042 0 .092 0 .155 0 .196.057.22.114l.176.427z"/></symbol><symbol id="f"><path d="M.117.194c0 .064-.024.105-.064.105C.018.299 0 .272 0 .246S.017.193.053.193c.016 0 .028.006.038.014l.002.002C.094.209.095.208.095.194A.255.255 0 0 0 .023.022C.017.016.016.015.016.011.016.004.021 0 .026 0c.012 0 .091.079.091.194z"/></symbol><symbol id="g"><path d="M.248.374c.082.027.14.097.14.176C.388.632.3.688.204.688.103.688.027.628.027.552.027.519.049.5.078.5.109.5.129.522.129.551c0 .05-.047.05-.062.05C.098.65.164.663.2.663.241.663.296.641.296.551A.25.25 0 0 0 .268.437C.238.389.204.386.179.385A.554.554 0 0 0 .14.382C.132.381.125.38.125.37c0-.011.007-.011.024-.011h.044C.275.359.312.291.312.193.312.057.243.028.199.028.156.028.081.045.046.104.081.099.112.121.112.159a.054.054 0 0 1-.056.056C.032.215 0 .201 0 .157 0 .066.093 0 .202 0c.122 0 .213.091.213.193 0 .082-.063.16-.167.181z"/></symbol><symbol id="h"><path d="M.232.5a.729.729 0 0 1-.066.312A.432.432 0 0 1 .01 1C.004 1 0 .996 0 .99 0 .987 0 .985.019.967.117.868.174.709.174.5.174.329.137.153.013.027 0 .015 0 .013 0 .01 0 .004.004 0 .01 0c.01 0 .1.068.159.195C.22.305.232.416.232.5z"/></symbol><symbol id="i"><path d="M.106.571a.053.053 0 0 1-.053.053A.053.053 0 0 1 0 .571C0 .542.024.518.053.518c.029 0 .053.024.053.053M.087.204c0-.028 0-.106-.064-.18C.016.016.016.014.016.011.016.004.021 0 .026 0c.011 0 .083.08.083.196 0 .029-.002.103-.056.103C.018.299 0 .272 0 .246S.017.193.053.193l.008.001a.05.05 0 0 1 .026.01z"/></symbol><use xlink:href="#a" transform="matrix(9.9626 0 0 -9.9626 26.554 62.557)"/><use xlink:href="#b" transform="matrix(9.9626 0 0 -9.9626 32.053 64.49)"/><use xlink:href="#c" transform="matrix(9.9626 0 0 -9.9626 37.871 62.667)"/><use xlink:href="#d" transform="matrix(9.9626 0 0 -9.9626 43.002 65.048)"/><use xlink:href="#e" transform="matrix(9.9626 0 0 -9.9626 46.08 64.6)"/><use xlink:href="#f" transform="matrix(9.9626 0 0 -9.9626 51.171 64.48)"/><use xlink:href="#g" transform="matrix(9.9626 0 0 -9.9626 56.83 62.776)"/><use xlink:href="#h" transform="matrix(9.9626 0 0 -9.9626 61.96 65.048)"/><use xlink:href="#i" transform="matrix(9.9626 0 0 -9.9626 66.125 64.48)"/><symbol id="j"><path d="M.343.135C.498.147.609.24.609.341c0 .104-.114.195-.266.207v.056c0 .034 0 .048.095.048h.033v.031C.435.68.343.68.302.68c-.041 0-.134 0-.17.003V.652h.033C.26.652.26.639.26.604V.548C.107.533 0 .441 0 .342 0 .239.111.15.26.135V.079C.26.045.26.031.165.031H.132V0C.168.003.26.003.301.003c.041 0 .134 0 .17-.003v.031H.438C.343.031.343.044.343.079v.056M.26.158C.118.177.1.279.1.341c0 .052.01.164.16.184V.158m.083.368C.481.51.509.418.509.342.509.282.494.175.343.157v.369z"/></symbol><use xlink:href="#j" transform="matrix(9.9626 0 0 -9.9626 81.289 63.471)"/><symbol id="k"><path d="M.631.194c.015 0 .034 0 .034.02s-.019.02-.033.02H.033C.019.234 0 .234 0 .214s.019-.02.034-.02h.597M.632 0c.014 0 .033 0 .033.02S.646.04.631.04H.034C.019.04 0 .04 0 .02S.019 0 .033 0h.599z"/></symbol><use xlink:href="#k" transform="matrix(9.9626 0 0 -9.9626 101.193 60.569)"/><symbol id="l"><path d="M.131.511C.022.439 0 .345 0 .309 0 .261.027.233.029.23.061.197.07.193.145.165L.266.118C.281.111.301.104.301.075.301.052.283.022.252.022.208.022.175.046.164.054.158.058.157.059.153.059.145.059.143.052.143.048.143.036.196 0 .252 0c.062 0 .104.058.104.107a.076.076 0 0 1-.048.071 4.015 4.015 0 0 0-.061.023L.186.224l-.06.024C.081.266.051.295.051.337c0 .041.039.128.123.17C.211.494.241.494.262.494c.03 0 .093 0 .093.031C.355.55.312.552.273.552.255.552.226.552.189.54a.11.11 0 0 0-.03.078.2.2 0 0 0 .111.17C.288.766.311.766.334.766c.025 0 .089 0 .089.031C.423.823.379.824.34.824c-.013 0-.037 0-.063-.005a.087.087 0 0 0-.005.033c0 .014.005.035.005.037 0 .008-.005.013-.012.013C.247.902.247.856.247.853c0-.02.006-.035.007-.039C.147.784.079.704.079.627.079.59.097.548.144.521L.131.511m.162.286C.309.802.33.802.341.802A.153.153 0 0 0 .397.796C.389.793.379.788.335.788c-.019 0-.031 0-.042.009M.215.524A.223.223 0 0 0 .272.53.156.156 0 0 0 .329.524C.321.52.311.516.265.516a.1.1 0 0 0-.05.008z"/></symbol><use xlink:href="#l" transform="matrix(9.9626 0 0 -9.9626 118.488 41.934)"/><symbol id="m"><path d="M.226.636c0 .027-.002.028-.03.028C.132.601.041.6 0 .6V.564c.024 0 .09 0 .145.028v-.51c0-.033 0-.046-.1-.046H.007V0l.178.004L.364 0v.036H.326c-.1 0-.1.013-.1.046v.554z"/></symbol><use xlink:href="#m" transform="matrix(6.9738 0 0 -6.9738 123.377 41.387)"/><symbol id="n"><path d="M.301.599C.293.616.287.62.278.62.265.62.262.613.256.599L.007.04C.001.027 0 .025 0 .02A.02.02 0 0 1 .02 0c.007 0 .015.002.023.021l.235.53.235-.53C.522 0 .532 0 .536 0a.02.02 0 0 1 .02.02c0 .002 0 .004-.006.016L.301.599z"/></symbol><use xlink:href="#n" transform="matrix(9.9626 0 0 -9.9626 129.848 40.111)"/><use xlink:href="#l" transform="matrix(9.9626 0 0 -9.9626 138.385 41.934)"/><symbol id="o"><path d="M.442.182H.408C.405.16.395.101.382.091.374.085.297.085.283.085H.099a3.5 3.5 0 0 0 .2.168c.074.059.143.121.143.216C.442.59.336.664.208.664.084.664 0 .577 0 .485 0 .434.043.429.053.429c.024 0 .053.017.053.053C.106.5.099.535.047.535a.157.157 0 0 0 .146.093c.1 0 .152-.078.152-.159C.345.382.283.313.251.277L.01.039C0 .03 0 .028 0 0h.412l.03.182z"/></symbol><use xlink:href="#o" transform="matrix(6.9738 0 0 -6.9738 142.954 41.387)"/><symbol id="p"><path d="M.556.231c0 .033-.003.036-.035.036H.035C.018.267 0 .267 0 .247s.018-.02.035-.02h.481V.036c0-.018 0-.036.02-.036s.02.018.02.036v.195z"/></symbol><use xlink:href="#n" transform="matrix(9.9626 0 0 -9.9626 149.746 40.111)"/><use xlink:href="#p" transform="matrix(9.9626 0 0 -9.9626 158.603 39.005)"/><use xlink:href="#d" transform="matrix(9.9626 0 0 -9.9626 165.681 42.383)"/><use xlink:href="#l" transform="matrix(9.9626 0 0 -9.9626 168.8 41.934)"/><symbol id="q"><path d="M.092.578C.143.565.173.565.189.565c.132 0 .21.09.21.105 0 .011-.007.014-.012.014-.002 0-.004 0-.008-.003C.355.672.302.652.228.652a.398.398 0 0 0-.146.027C.072.684.07.684.069.684.056.684.056.673.056.657V.362c0-.017 0-.029.016-.029.009 0 .01.002.02.014A.171.171 0 0 0 .231.41C.291.41.318.362.323.354A.258.258 0 0 0 .347.225c0-.03 0-.089-.03-.133A.142.142 0 0 0 .2.032a.166.166 0 0 0-.157.102C.081.131.1.156.1.183.1.226.063.234.05.234.048.234 0 .234 0 .18 0 .09.082 0 .202 0c.128 0 .24.095.24.221a.213.213 0 0 1-.21.217.21.21 0 0 1-.14-.049v.189z"/></symbol><use xlink:href="#q" transform="matrix(6.9738 0 0 -6.9738 173.367 41.526)"/><use xlink:href="#n" transform="matrix(9.9626 0 0 -9.9626 180.16 40.111)"/><symbol id="r"><path d="M.436.247c0 .157-.093.206-.167.206C.132.453 0 .31 0 .169 0 .076.06 0 .162 0c.063 0 .135.023.211.084C.386.031.419 0 .464 0c.053 0 .084.055.084.071 0 .007-.006.01-.012.01-.007 0-.01-.003-.013-.01C.505.022.469.022.467.022.436.022.436.1.436.124c0 .021 0 .023.01.035a.578.578 0 0 1 .115.235c0 .002-.001.01-.012.01-.01 0-.01-.003-.015-.021A.59.59 0 0 0 .436.185v.062M.369.11A.311.311 0 0 0 .164.022c-.06 0-.09.045-.09.109C.074.18.1.288.132.339c.047.073.101.092.136.092C.367.431.367.3.367.222c0-.037 0-.095.002-.112z"/></symbol><use xlink:href="#r" transform="matrix(9.9626 0 0 -9.9626 188.875 40.002)"/><symbol id="s"><path d="M.49.164V.2H.379v.446c0 .021 0 .028-.022.028-.012 0-.016 0-.026-.014L0 .2V.164h.294V.082c0-.034 0-.046-.081-.046H.186V0l.15.004L.487 0v.036H.46C.379.036.379.048.379.082v.082H.49M.301.566V.2H.037l.264.366z"/></symbol><use xlink:href="#s" transform="matrix(6.9738 0 0 -6.9738 195.112 41.387)"/><symbol id="t"><path d="M.12.053C.12.079.103.106.067.106A.058.058 0 0 1 .027.09L.024.087C.022.087.022.101.022.105c0 .032.007.104.07.166.012.012.012.014.012.017 0 .007-.005.011-.01.011C.083.299 0 .223 0 .105 0 .045.024 0 .067 0 .102 0 .12.027.12.053m.194 0c0 .026-.017.053-.053.053A.058.058 0 0 1 .221.09L.218.087C.216.087.216.101.216.105c0 .032.007.104.07.166.012.012.012.014.012.017 0 .007-.005.011-.01.011C.277.299.194.223.194.105.194.045.218 0 .261 0c.035 0 .053.027.053.053z"/></symbol><symbol id="u"><path d="M.12.194c0 .06-.024.105-.067.105C.018.299 0 .272 0 .246S.017.193.053.193c.02 0 .034.01.04.016l.003.003C.098.212.098.198.098.194a.232.232 0 0 0-.07-.166C.016.016.016.014.016.011.016.004.021 0 .026 0 .037 0 .12.076.12.194m.194 0c0 .06-.024.105-.067.105C.212.299.194.272.194.246S.211.193.247.193c.02 0 .034.01.04.016L.29.212C.292.212.292.198.292.194a.232.232 0 0 0-.07-.166C.21.016.21.014.21.011.21.004.215 0 .22 0c.011 0 .094.076.094.194z"/></symbol><use xlink:href="#k" transform="matrix(9.9626 0 0 -9.9626 202.635 38.567)"/><use xlink:href="#t" transform="matrix(9.9626 0 0 -9.9626 214.112 35.967)"/><use xlink:href="#e" transform="matrix(9.9626 0 0 -9.9626 217.768 41.934)"/><use xlink:href="#u" transform="matrix(9.9626 0 0 -9.9626 223.168 35.957)"/><use xlink:href="#h" transform="matrix(9.9626 0 0 -9.9626 228.388 42.383)"/><symbol id="v"><path d="M.549.58C.555.593.556.595.556.6a.02.02 0 0 1-.02.02C.526.62.52.613.513.598L.278.069l-.235.53C.035.618.027.62.02.62A.02.02 0 0 1 0 .6C0 .598 0 .596.006.584L.255.021C.263.004.269 0 .278 0 .291 0 .294.007.3.021L.549.58z"/></symbol><use xlink:href="#v" transform="matrix(9.9626 0 0 -9.9626 118.807 52.067)"/><use xlink:href="#d" transform="matrix(9.9626 0 0 -9.9626 125.886 54.339)"/><use xlink:href="#l" transform="matrix(9.9626 0 0 -9.9626 129.004 53.89)"/><use xlink:href="#o" transform="matrix(6.9738 0 0 -6.9738 133.572 53.342)"/><use xlink:href="#n" transform="matrix(9.9626 0 0 -9.9626 140.365 52.067)"/><use xlink:href="#l" transform="matrix(9.9626 0 0 -9.9626 148.901 53.89)"/><symbol id="w"><path d="M.219.354C.297.354.353.3.353.193.353.069.281.032.223.032c-.04 0-.128.011-.17.07C.1.104.111.137.111.158a.054.054 0 0 1-.055.055C.028.213 0 .196 0 .155 0 .061.104 0 .225 0 .364 0 .46.093.46.193.46.271.396.349.286.372.391.41.429.485.429.546c0 .079-.091.138-.202.138C.116.684.031.63.031.55c0-.034.022-.053.052-.053a.05.05 0 0 1 .051.051c0 .029-.02.05-.051.052.035.044.104.055.141.055.045 0 .108-.022.108-.109a.192.192 0 0 0-.04-.119C.259.389.231.387.181.384L.149.381C.147.381.139.379.139.368c0-.014.009-.014.026-.014h.054z"/></symbol><use xlink:href="#w" transform="matrix(6.9738 0 0 -6.9738 153.408 53.481)"/><use xlink:href="#n" transform="matrix(9.9626 0 0 -9.9626 160.262 52.067)"/><use xlink:href="#r" transform="matrix(9.9626 0 0 -9.9626 168.978 51.958)"/><use xlink:href="#m" transform="matrix(6.9738 0 0 -6.9738 175.703 53.342)"/><symbol id="x"><path d="M.205.64c0 .024 0 .026-.023.026C.12.602.032.602 0 .602V.571a.3.3 0 0 1 .131.026V.079C.131.043.128.031.038.031H.006V0c.035.003.122.003.162.003.04 0 .127 0 .162-.003v.031H.298c-.09 0-.093.011-.093.048V.64z"/></symbol><use xlink:href="#k" transform="matrix(9.9626 0 0 -9.9626 182.738 50.523)"/><use xlink:href="#x" transform="matrix(9.9626 0 0 -9.9626 193.587 51.848)"/><use xlink:href="#n" transform="matrix(9.9626 0 0 -9.9626 200.439 52.067)"/><use xlink:href="#l" transform="matrix(9.9626 0 0 -9.9626 208.976 53.89)"/><use xlink:href="#s" transform="matrix(6.9738 0 0 -6.9738 213.377 53.342)"/><use xlink:href="#n" transform="matrix(9.9626 0 0 -9.9626 220.336 52.067)"/><use xlink:href="#r" transform="matrix(9.9626 0 0 -9.9626 229.052 51.958)"/><use xlink:href="#w" transform="matrix(6.9738 0 0 -6.9738 235.394 53.481)"/><symbol id="y"><path d="M.077.077.183.18c.156.138.216.192.216.292 0 .114-.09.194-.212.194A.185.185 0 0 1 0 .485C0 .429.05.429.053.429c.017 0 .052.012.052.053a.05.05 0 0 1-.053.052L.039.533a.144.144 0 0 0 .135.102C.265.635.308.554.308.472c0-.08-.05-.159-.105-.221L.011.037C0 .026 0 .024 0 0h.371l.028.174H.374C.369.144.362.1.352.085.345.077.279.077.257.077h-.18z"/></symbol><use xlink:href="#k" transform="matrix(9.9626 0 0 -9.9626 242.812 50.523)"/><use xlink:href="#y" transform="matrix(9.9626 0 0 -9.9626 253.273 51.848)"/><use xlink:href="#h" transform="matrix(9.9626 0 0 -9.9626 258.324 54.339)"/><use xlink:href="#n" transform="matrix(9.9626 0 0 -9.9626 138.732 64.022)"/><use xlink:href="#p" transform="matrix(9.9626 0 0 -9.9626 145.377 62.916)"/><use xlink:href="#d" transform="matrix(9.9626 0 0 -9.9626 152.453 66.294)"/><use xlink:href="#l" transform="matrix(9.9626 0 0 -9.9626 155.571 65.845)"/><symbol id="z"><path d="M.096.347c0 .082.007.156.045.217a.181.181 0 0 0 .152.091c.03 0 .07-.008.09-.035C.358.618.337.601.337.572c0-.025.017-.047.047-.047s.048.02.048.049c0 .058-.042.11-.141.11C.147.684 0 .552 0 .337 0 .078.122 0 .232 0 .354 0 .46.093.46.224a.219.219 0 0 1-.218.221C.162.445.118.392.096.347M.232.032a.12.12 0 0 0-.11.073.338.338 0 0 0-.023.14c0 .097.058.172.138.172A.113.113 0 0 0 .339.362C.363.324.364.282.364.224c0-.057 0-.099-.027-.138A.117.117 0 0 0 .232.032z"/></symbol><use xlink:href="#z" transform="matrix(6.9738 0 0 -6.9738 160.077 65.436)"/><use xlink:href="#n" transform="matrix(9.9626 0 0 -9.9626 166.932 64.022)"/><use xlink:href="#r" transform="matrix(9.9626 0 0 -9.9626 175.647 63.913)"/><use xlink:href="#q" transform="matrix(6.9738 0 0 -6.9738 182.051 65.436)"/><symbol id="A"><path d="M.275.235c.03.038.068.087.092.113A.153.153 0 0 0 .486.4v.031a1.123 1.123 0 0 0-.178 0V.4C.329.398.337.385.337.369A.057.057 0 0 0 .322.334L.26.256.182.357C.173.367.173.369.173.375.173.39.188.399.208.4v.031a1.66 1.66 0 0 0-.203 0V.4C.075.4.076.399.123.339L.222.21.128.091A.16.16 0 0 0 0 .031V0c.026.002.057.003.083.003L.178 0v.031C.156.034.149.047.149.062c0 .022.029.055.09.127l.076-.1C.323.078.336.062.336.056.336.047.327.032.3.031V0l.108.003C.435.003.474.002.504 0v.031C.45.031.432.033.409.062L.275.235z"/></symbol><use xlink:href="#k" transform="matrix(9.9626 0 0 -9.9626 189.407 62.478)"/><use xlink:href="#t" transform="matrix(9.9626 0 0 -9.9626 200.884 59.878)"/><use xlink:href="#A" transform="matrix(9.9626 0 0 -9.9626 204.47 63.803)"/><use xlink:href="#u" transform="matrix(9.9626 0 0 -9.9626 209.94 59.868)"/><use xlink:href="#n" transform="matrix(9.9626 0 0 -9.9626 217.348 64.022)"/><use xlink:href="#r" transform="matrix(9.9626 0 0 -9.9626 226.063 63.913)"/><use xlink:href="#z" transform="matrix(6.9738 0 0 -6.9738 232.406 65.436)"/><use xlink:href="#k" transform="matrix(9.9626 0 0 -9.9626 239.823 62.478)"/><use xlink:href="#r" transform="matrix(9.9626 0 0 -9.9626 250.19 63.913)"/><use xlink:href="#o" transform="matrix(6.9738 0 0 -6.9738 256.593 65.297)"/><use xlink:href="#h" transform="matrix(9.9626 0 0 -9.9626 261.192 66.294)"/><use xlink:href="#n" transform="matrix(9.9626 0 0 -9.9626 138.732 75.977)"/><use xlink:href="#p" transform="matrix(9.9626 0 0 -9.9626 145.377 74.871)"/><use xlink:href="#d" transform="matrix(9.9626 0 0 -9.9626 152.453 78.249)"/><use xlink:href="#l" transform="matrix(9.9626 0 0 -9.9626 155.571 77.8)"/><use xlink:href="#q" transform="matrix(6.9738 0 0 -6.9738 160.14 77.391)"/><use xlink:href="#n" transform="matrix(9.9626 0 0 -9.9626 166.932 75.977)"/><use xlink:href="#r" transform="matrix(9.9626 0 0 -9.9626 175.647 75.868)"/><use xlink:href="#s" transform="matrix(6.9738 0 0 -6.9738 181.884 77.252)"/><use xlink:href="#k" transform="matrix(9.9626 0 0 -9.9626 189.407 74.433)"/><use xlink:href="#t" transform="matrix(9.9626 0 0 -9.9626 200.884 71.833)"/><use xlink:href="#e" transform="matrix(9.9626 0 0 -9.9626 204.54 77.8)"/><use xlink:href="#u" transform="matrix(9.9626 0 0 -9.9626 209.94 71.823)"/><use xlink:href="#h" transform="matrix(9.9626 0 0 -9.9626 215.16 78.249)"/><symbol id="B"><path d="M.106.053a.053.053 0 0 1-.053.053A.053.053 0 0 1 0 .053C0 .024.024 0 .053 0c.029 0 .053.024.053.053z"/></symbol><use xlink:href="#v" transform="matrix(9.9626 0 0 -9.9626 118.806 87.932)"/><use xlink:href="#B" transform="matrix(9.9626 0 0 -9.9626 127.424 85.75)"/><use xlink:href="#B" transform="matrix(9.9626 0 0 -9.9626 131.847 85.75)"/><use xlink:href="#B" transform="matrix(9.9626 0 0 -9.9626 136.28 85.75)"/><symbol id="C"><path d="M.142.431v.116c0 .088.048.136.092.136.003 0 .018 0 .033-.007a.044.044 0 0 1-.03-.042C.237.611.253.591.28.591c.029 0 .044.02.044.044 0 .037-.037.07-.09.07A.155.155 0 0 1 .079.546V.431H0V.4h.079V.076C.079.031.068.031.001.031V0l.114.003c.04 0 .087 0 .127-.003v.031H.221C.147.031.145.042.145.078V.4h.114v.031H.142z"/></symbol><symbol id="D"><path d="M.139.332v.11L0 .431V.4C.07.4.078.393.078.344V.076C.078.031.067.031 0 .031V0l.114.003c.04 0 .087 0 .127-.003v.031H.22C.146.031.144.042.144.078v.154c0 .099.042.188.118.188L.273.419A.043.043 0 0 1 .25.38C.25.352.271.337.293.337c.018 0 .043.012.043.044S.305.442.262.442C.189.442.153.375.139.332z"/></symbol><symbol id="E"><path d="M.443.225c0 .128-.1.234-.221.234C.097.459 0 .35 0 .225 0 .096.104 0 .221 0c.121 0 .222.098.222.225m-.221-.2a.13.13 0 0 0-.114.067C.083.136.083.197.083.233c0 .039 0 .093.024.137a.134.134 0 0 0 .114.067.131.131 0 0 0 .113-.065C.36.329.36.271.36.233c0-.036 0-.09-.022-.134A.129.129 0 0 0 .222.025z"/></symbol><symbol id="F"><path d="M.078.344V.076C.078.031.067.031 0 .031V0l.113.003L.225 0v.031c-.067 0-.078 0-.078.045V.26c0 .104.071.16.135.16C.345.42.356.366.356.309V.076C.356.031.345.031.278.031V0l.113.003L.503 0v.031c-.067 0-.078 0-.078.045V.26c0 .104.071.16.135.16C.623.42.634.366.634.309V.076C.634.031.623.031.556.031V0l.113.003L.781 0v.031c-.052 0-.077 0-.078.03v.191c0 .086 0 .117-.031.153C.658.422.625.442.567.442A.158.158 0 0 1 .422.344C.408.431.334.442.289.442.216.442.169.399.141.337v.105L0 .431V.4C.07.4.078.393.078.344z"/></symbol><symbol id="G"><path d="M.291.087C.295.047.322.005.369.005.39.005.451.019.451.1v.056H.426V.1C.426.042.401.036.39.036c-.033 0-.037.045-.037.05v.2c0 .042 0 .081-.036.118A.191.191 0 0 1 .18.459C.098.459.029.412.029.346c0-.03.02-.047.046-.047.028 0 .046.02.046.046C.121.357.116.39.07.391c.027.035.076.046.108.046.049 0 .106-.039.106-.128V.272C.233.269.163.266.1.236.025.202 0 .15 0 .106 0 .025.097 0 .16 0c.066 0 .112.04.131.087M.284.251v-.1C.284.056.212.022.167.022c-.049 0-.09.035-.09.085 0 .055.042.138.207.144z"/></symbol><symbol id="H"><path d="M.359.09V0l.144.011v.031c-.07 0-.078.007-.078.056v.355L.278.442V.411c.07 0 .078-.007.078-.056V.177C.356.09.308.022.235.022.151.022.147.069.147.121v.332L0 .442V.411C.078.411.078.408.078.319v-.15C.078.091.078 0 .23 0c.056 0 .1.028.129.09z"/></symbol><symbol id="I"><path d="M.397.344C.406.367.423.41.489.411v.031a.94.94 0 0 0-.162 0V.411C.364.41.375.387.375.368.375.359.373.355.369.344L.267.089.155.368C.149.381.149.383.149.385c0 .026.039.026.057.026v.031L.097.439C.07.439.03.44 0 .442V.411C.063.411.067.405.08.374L.224.019C.23.005.232 0 .245 0c.013 0 .017.009.021.019l.131.325z"/></symbol><symbol id="J"><path d="M.175.205C.197.201.279.185.279.113.279.062.244.022.166.022c-.084 0-.12.057-.139.142C.024.177.023.181.013.181 0 .181 0 .174 0 .156V.024C0 .007 0 0 .011 0c.005 0 .006.001.025.02.002.002.002.004.02.023A.15.15 0 0 1 .166 0c.115 0 .161.067.161.139 0 .053-.03.083-.042.095C.252.266.213.274.171.282.115.293.048.306.048.364.048.399.074.44.16.44.27.44.275.35.277.319.278.31.287.31.289.31c.013 0 .013.005.013.024v.101c0 .017 0 .024-.011.024-.005 0-.007 0-.02-.012A.129.129 0 0 0 .254.431C.216.459.175.459.16.459.038.459 0 .392 0 .336 0 .301.016.273.043.251.075.225.103.219.175.205z"/></symbol><symbol id="K"><path d="M.083.229c0 .163.082.205.135.205C.227.434.29.433.325.397.284.394.278.364.278.351c0-.026.018-.046.046-.046C.35.305.37.322.37.352.37.42.294.459.217.459.092.459 0 .351 0 .227 0 .099.099 0 .215 0c.134 0 .166.12.166.13 0 .01-.01.01-.013.01C.359.14.357.136.355.13.326.037.261.025.224.025.171.025.083.068.083.229z"/></symbol><symbol id="L"><path d="M.078.076C.078.031.067.031 0 .031V0l.113.003L.225 0v.031c-.067 0-.078 0-.078.045V.26c0 .104.071.16.135.16C.345.42.356.366.356.309V.076C.356.031.345.031.278.031V0l.113.003L.503 0v.031c-.052 0-.077 0-.078.03v.191c0 .086 0 .117-.031.153C.38.422.347.442.289.442A.158.158 0 0 1 .144.344v.35L0 .683V.652C.07.652.078.645.078.596v-.52z"/></symbol><symbol id="M"><path d="M.346.066V0l.147.011v.031c-.07 0-.078.007-.078.056v.607L.271.694V.663c.07 0 .078-.007.078-.056V.391a.16.16 0 0 1-.126.062A.226.226 0 0 1 0 .226C0 .099.098 0 .212 0c.064 0 .109.034.134.066m0 .268V.129c0-.018 0-.02-.011-.037a.14.14 0 0 0-.118-.07C.172.022.136.048.112.086a.269.269 0 0 0-.029.139c0 .037.002.097.031.142a.137.137 0 0 0 .113.064.13.13 0 0 0 .108-.06C.346.354.346.352.346.334z"/></symbol><use xlink:href="#C" transform="matrix(9.9626 0 0 -9.9626 142.675 11.208)"/><use xlink:href="#D" transform="matrix(9.9626 0 0 -9.9626 145.674 11.208)"/><use xlink:href="#E" transform="matrix(9.9626 0 0 -9.9626 149.579 11.318)"/><use xlink:href="#F" transform="matrix(9.9626 0 0 -9.9626 154.6 11.208)"/><use xlink:href="#G" transform="matrix(9.9626 0 0 -9.9626 166.316 11.318)"/><use xlink:href="#H" transform="matrix(9.9626 0 0 -9.9626 171.198 11.318)"/><use xlink:href="#A" transform="matrix(9.9626 0 0 -9.9626 176.538 11.208)"/><use xlink:href="#I" transform="matrix(9.9626 0 0 -9.9626 185.195 11.318)"/><use xlink:href="#G" transform="matrix(9.9626 0 0 -9.9626 190.127 11.318)"/><use xlink:href="#D" transform="matrix(9.9626 0 0 -9.9626 194.968 11.208)"/><use xlink:href="#J" transform="matrix(9.9626 0 0 -9.9626 198.924 11.318)"/><use xlink:href="#C" transform="matrix(9.9626 0 0 -9.9626 206.166 11.208)"/><use xlink:href="#E" transform="matrix(9.9626 0 0 -9.9626 209.165 11.318)"/><use xlink:href="#D" transform="matrix(9.9626 0 0 -9.9626 214.146 11.208)"/><use xlink:href="#c" transform="matrix(9.9626 0 0 -9.9626 221.38 11.318)"/><use xlink:href="#G" transform="matrix(9.9626 0 0 -9.9626 225.942 11.318)"/><use xlink:href="#K" transform="matrix(9.9626 0 0 -9.9626 230.844 11.318)"/><use xlink:href="#L" transform="matrix(9.9626 0 0 -9.9626 234.968 11.208)"/><use xlink:href="#a" transform="matrix(9.9626 0 0 -9.9626 243.825 11.208)"/><use xlink:href="#E" transform="matrix(9.9626 0 0 -9.9626 249.324 11.318)"/><use xlink:href="#M" transform="matrix(9.9626 0 0 -9.9626 254.644 11.318)"/><use xlink:href="#c" transform="matrix(9.9626 0 0 -9.9626 260.124 11.318)"/><path stroke-width=".399" stroke-miterlimit="10" fill="none" stroke="#000" d="m204.85 14.727 3.455 15.542"/><path d="m208.846 32.706.54-3.778-1.06 1.438-1.568-.854z"/><path stroke-width=".39897207" stroke-miterlimit="10" fill="none" stroke="#000" d="m208.846 32.706.54-3.778-1.06 1.438-1.568-.854z"/><symbol id="N"><path d="M.144.442.004.431V.4C.069.4.078.394.078.345V.076C.078.031.067.031 0 .031V0l.11.003C.145.003.18.001.214 0v.031c-.066 0-.07.005-.07.044v.367m.004.174a.052.052 0 0 1-.053.053.054.054 0 0 1-.053-.053c0-.027.022-.053.053-.053.028 0 .053.021.053.053z"/></symbol><symbol id="O"><path d="M.154.411h.143v.031H.154v.184H.129C.128.544.098.437 0 .433V.411h.085V.135C.085.012.178 0 .214 0c.071 0 .099.071.099.135v.057H.288V.137C.288.063.258.025.221.025.154.025.154.116.154.133v.278z"/></symbol><use xlink:href="#E" transform="matrix(9.9626 0 0 -9.9626 3.6 10.349)"/><use xlink:href="#I" transform="matrix(9.9626 0 0 -9.9626 8.213 10.349)"/><use xlink:href="#c" transform="matrix(9.9626 0 0 -9.9626 13.284 10.349)"/><use xlink:href="#D" transform="matrix(9.9626 0 0 -9.9626 17.707 10.239)"/><use xlink:href="#a" transform="matrix(9.9626 0 0 -9.9626 24.98 10.239)"/><use xlink:href="#E" transform="matrix(9.9626 0 0 -9.9626 30.48 10.349)"/><use xlink:href="#M" transform="matrix(9.9626 0 0 -9.9626 35.79 10.349)"/><use xlink:href="#c" transform="matrix(9.9626 0 0 -9.9626 41.269 10.349)"/><use xlink:href="#J" transform="matrix(9.9626 0 0 -9.9626 45.742 10.349)"/><use xlink:href="#N" transform="matrix(9.9626 0 0 -9.9626 52.995 10.239)"/><use xlink:href="#a" transform="matrix(9.9626 0 0 -9.9626 55.754 10.239)"/><use xlink:href="#b" transform="matrix(9.9626 0 0 -9.9626 64.571 12.172)"/><use xlink:href="#D" transform="matrix(9.9626 0 0 -9.9626 70.11 10.239)"/><use xlink:href="#E" transform="matrix(9.9626 0 0 -9.9626 74.016 10.349)"/><use xlink:href="#E" transform="matrix(9.9626 0 0 -9.9626 79.276 10.349)"/><use xlink:href="#C" transform="matrix(9.9626 0 0 -9.9626 84.307 10.239)"/><use xlink:href="#O" transform="matrix(9.9626 0 0 -9.9626 90.534 10.349)"/><use xlink:href="#D" transform="matrix(9.9626 0 0 -9.9626 94.499 10.239)"/><use xlink:href="#c" transform="matrix(9.9626 0 0 -9.9626 98.404 10.349)"/><use xlink:href="#c" transform="matrix(9.9626 0 0 -9.9626 102.827 10.349)"/><path stroke-width=".399" stroke-miterlimit="10" fill="none" stroke="#000" d="m80.379 15.696 48.375 15.227"/><path d="m131.136 31.673-3.003-2.356.716 1.636-1.524.931z"/><path stroke-width=".39897606" stroke-miterlimit="10" fill="none" stroke="#000" d="m131.136 31.673-3.003-2.356.716 1.636-1.524.931z"/><symbol id="P"><path d="M.144.388v.317L0 .694V.663C.07.663.078.656.078.607V.011h.025l.036.062A.157.157 0 0 1 .27 0c.119 0 .223.098.223.227 0 .127-.098.226-.212.226A.178.178 0 0 1 .144.388M.147.125v.206c0 .019 0 .02.011.036a.144.144 0 0 0 .118.064C.321.431.357.405.381.367A.269.269 0 0 0 .41.228.268.268 0 0 0 .379.086.137.137 0 0 0 .266.022a.124.124 0 0 0-.105.061C.147.104.147.107.147.125z"/></symbol><symbol id="Q"><path d="M.194.378c-.087 0-.087.1-.087.123 0 .027.001.059.016.084.008.012.031.04.071.04.087 0 .087-.1.087-.123A.164.164 0 0 0 .265.418a.086.086 0 0 0-.071-.04M.078.339c0 .004 0 .027.017.047A.17.17 0 0 1 .194.355c.093 0 .162.069.162.146a.135.135 0 0 1-.041.097.131.131 0 0 0 .09.039l.01-.001C.404.632.399.621.399.609.399.592.412.58.428.58c.01 0 .029.007.029.03a.049.049 0 0 1-.051.049A.154.154 0 0 1 .3.612a.167.167 0 0 1-.106.036C.101.648.032.579.032.502.032.458.054.42.079.399A.138.138 0 0 1 .048.316c0-.031.013-.069.044-.089C.032.21 0 .167 0 .127 0 .055.099 0 .221 0c.118 0 .222.051.222.129a.128.128 0 0 1-.065.114C.325.271.267.271.206.271L.131.272C.099.276.078.307.078.339M.222.023c-.101 0-.17.051-.17.104 0 .046.038.083.082.086h.059c.086 0 .198 0 .198-.086C.391.073.32.023.222.023z"/></symbol><symbol id="R"><path d="M.601.347C.619.397.65.41.685.411v.031a.89.89 0 0 0-.166 0V.411C.555.41.577.392.577.363c0-.006 0-.008-.005-.021L.481.086.382.365C.378.377.377.379.377.384c0 .027.039.027.059.027v.031L.332.439C.302.439.273.44.243.442V.411C.28.411.296.409.306.396.311.39.322.36.329.341L.243.099.148.366C.143.378.143.38.143.384c0 .027.039.027.059.027v.031L.093.439 0 .442V.411C.05.411.062.408.074.376L.2.022C.205.008.208 0 .221 0c.013 0 .015.006.02.02l.101.283.102-.284C.448.008.451 0 .464 0c.013 0 .016.009.02.019l.117.328z"/></symbol><symbol id="S"><path d="M.382.962C.387.975.387.978.387.98a.02.02 0 0 1-.02.02C.353 1 .349.99.346.98L.005.038C0 .025 0 .022 0 .02A.02.02 0 0 1 .02 0c.014 0 .018.01.021.02l.341.942z"/></symbol><use xlink:href="#E" transform="matrix(9.9626 0 0 -9.9626 114.3 116.508)"/><use xlink:href="#I" transform="matrix(9.9626 0 0 -9.9626 118.913 116.508)"/><use xlink:href="#c" transform="matrix(9.9626 0 0 -9.9626 123.984 116.508)"/><use xlink:href="#D" transform="matrix(9.9626 0 0 -9.9626 128.417 116.398)"/><use xlink:href="#G" transform="matrix(9.9626 0 0 -9.9626 135.78 116.508)"/><use xlink:href="#J" transform="matrix(9.9626 0 0 -9.9626 143.988 116.508)"/><use xlink:href="#H" transform="matrix(9.9626 0 0 -9.9626 147.904 116.508)"/><use xlink:href="#P" transform="matrix(9.9626 0 0 -9.9626 153.403 116.508)"/><use xlink:href="#J" transform="matrix(9.9626 0 0 -9.9626 158.992 116.508)"/><use xlink:href="#c" transform="matrix(9.9626 0 0 -9.9626 162.868 116.508)"/><use xlink:href="#O" transform="matrix(9.9626 0 0 -9.9626 167.201 116.508)"/><use xlink:href="#E" transform="matrix(9.9626 0 0 -9.9626 174.494 116.508)"/><use xlink:href="#C" transform="matrix(9.9626 0 0 -9.9626 179.525 116.398)"/><use xlink:href="#b" transform="matrix(9.9626 0 0 -9.9626 185.841 118.33)"/><use xlink:href="#D" transform="matrix(9.9626 0 0 -9.9626 191.38 116.398)"/><use xlink:href="#E" transform="matrix(9.9626 0 0 -9.9626 195.286 116.508)"/><use xlink:href="#Q" transform="matrix(9.9626 0 0 -9.9626 200.267 118.45)"/><use xlink:href="#D" transform="matrix(9.9626 0 0 -9.9626 205.248 116.398)"/><use xlink:href="#G" transform="matrix(9.9626 0 0 -9.9626 209.293 116.508)"/><use xlink:href="#F" transform="matrix(9.9626 0 0 -9.9626 214.175 116.398)"/><use xlink:href="#J" transform="matrix(9.9626 0 0 -9.9626 222.484 116.508)"/><use xlink:href="#R" transform="matrix(9.9626 0 0 -9.9626 229.577 116.508)"/><use xlink:href="#S" transform="matrix(9.9626 0 0 -9.9626 237.149 118.889)"/><use xlink:href="#J" transform="matrix(9.9626 0 0 -9.9626 245.228 116.508)"/><use xlink:href="#G" transform="matrix(9.9626 0 0 -9.9626 249.243 116.508)"/><use xlink:href="#F" transform="matrix(9.9626 0 0 -9.9626 254.125 116.398)"/><use xlink:href="#c" transform="matrix(9.9626 0 0 -9.9626 262.384 116.508)"/><use xlink:href="#b" transform="matrix(9.9626 0 0 -9.9626 270.125 118.33)"/><use xlink:href="#D" transform="matrix(9.9626 0 0 -9.9626 275.664 116.398)"/><use xlink:href="#E" transform="matrix(9.9626 0 0 -9.9626 279.57 116.508)"/><use xlink:href="#E" transform="matrix(9.9626 0 0 -9.9626 284.83 116.508)"/><use xlink:href="#C" transform="matrix(9.9626 0 0 -9.9626 289.86 116.398)"/><path stroke-width=".399" stroke-miterlimit="10" fill="none" stroke="#000" d="m177.8 105.407-48.13-16.042"/><path d="m127.302 88.576 2.962 2.405-.688-1.648 1.54-.905z"/><path stroke-width=".39898005000000003" stroke-miterlimit="10" fill="none" stroke="#000" d="m127.302 88.576 2.962 2.405-.688-1.648 1.54-.905z"/></svg>